<svg xmlns="http://www.w3.org/2000/svg" viewBox="0 0 310.03 310.03"><defs><style>.cls-1{fill:#1d1d1b;}.cls-2{isolation:isolate;}.cls-3{fill:#7f7f7f;}.cls-4{fill:#898989;}.cls-5{fill:#c5c5c5;}.cls-6{fill:#dcdcdc;}.cls-7{fill:#bb0e0c;}.cls-8{fill:#901003;}.cls-9{fill:#cb0b0f;}</style></defs><title>barricade</title><g id="Layer_5" data-name="Layer 5"><circle class="cls-1" cx="155.01" cy="155.01" r="155.01"/></g><g id="Layer_3" data-name="Layer 3"><g class="cls-2"><polygon class="cls-3" points="147.81 149.01 147.81 149.82 116.23 131.59 116.24 130.78 147.81 149.01"/><polygon class="cls-3" points="116.24 130.78 116.23 131.59 84.87 149.82 84.88 149 116.24 130.78"/><polygon class="cls-4" points="116.45 167.23 116.44 168.05 84.87 149.82 84.88 149 116.45 167.23"/><polygon class="cls-5" points="147.81 149.01 147.81 149.82 116.44 168.05 116.45 167.23 147.81 149.01"/><path class="cls-3" d="M593.67,315.14l33,19-32.77,19-33-19Zm.22,37.27,31.36-18.22L593.67,316l-31.36,18.22,31.57,18.23" transform="translate(-477.44 -185.18)"/><polygon class="cls-6" points="147.81 149.01 116.45 167.23 84.88 149 116.24 130.78 147.81 149.01"/><polygon class="cls-3" points="116.45 168.05 116.45 168.87 83.46 149.82 83.46 149 116.45 168.05"/><polygon class="cls-3" points="149.22 149.01 149.22 149.82 116.45 168.87 116.45 168.05 149.22 149.01"/></g><g class="cls-2"><polygon class="cls-5" points="180.33 113.88 180.28 130.19 148.21 148.82 148.26 132.52 180.33 113.88"/><polygon class="cls-4" points="148.26 132.52 148.21 148.82 115.94 130.19 115.99 113.89 148.26 132.52"/><polygon class="cls-6" points="180.33 113.88 148.26 132.52 115.99 113.89 148.06 95.25 180.33 113.88"/></g><g class="cls-2"><polygon class="cls-5" points="212.27 67.82 212.03 149.33 179.96 167.97 180.19 86.45 212.27 67.82"/><polygon class="cls-4" points="180.19 86.45 179.96 167.97 147.69 149.34 147.92 67.82 180.19 86.45"/><polygon class="cls-6" points="212.27 67.82 180.19 86.45 147.92 67.82 179.99 49.18 212.27 67.82"/></g><g class="cls-2"><polygon class="cls-5" points="244.33 152.63 244.28 168.94 212.21 187.57 212.26 171.27 244.33 152.63"/><polygon class="cls-4" points="212.26 171.27 212.21 187.57 179.94 168.94 179.99 152.64 212.26 171.27"/><polygon class="cls-6" points="244.33 152.63 212.26 171.27 179.99 152.64 212.06 134 244.33 152.63"/></g><g class="cls-2"><polygon class="cls-3" points="179.37 168 179.37 168.82 147.81 150.59 147.81 149.78 179.37 168"/><polygon class="cls-3" points="147.81 149.78 147.81 150.59 116.44 168.82 116.44 168.01 147.81 149.78"/><polygon class="cls-4" points="148.01 186.23 148 187.05 116.44 168.82 116.44 168.01 148.01 186.23"/><polygon class="cls-5" points="179.37 168 179.37 168.82 148 187.05 148.01 186.23 179.37 168"/><path class="cls-3" d="M625.24,334.14l33,19-32.78,19-33-19Zm.2,37.27,31.37-18.23L625.25,335l-31.37,18.23,31.57,18.22" transform="translate(-477.44 -185.18)"/><polygon class="cls-6" points="179.37 168 148.01 186.23 116.44 168.01 147.81 149.78 179.37 168"/><polygon class="cls-3" points="148.01 187.05 148.01 187.87 115.03 168.82 115.03 168.01 148.01 187.05"/><polygon class="cls-3" points="180.79 168 180.78 168.82 148.01 187.87 148.01 187.05 180.79 168"/></g><g class="cls-2"><polygon class="cls-3" points="211.59 186.5 211.59 187.32 180.02 169.09 180.02 168.28 211.59 186.5"/><polygon class="cls-3" points="180.02 168.28 180.02 169.09 148.65 187.32 148.66 186.51 180.02 168.28"/><polygon class="cls-4" points="180.23 204.73 180.22 205.55 148.65 187.32 148.66 186.51 180.23 204.73"/><polygon class="cls-5" points="211.59 186.5 211.59 187.32 180.22 205.55 180.23 204.73 211.59 186.5"/><path class="cls-3" d="M657.46,352.64l33,19-32.78,19-33-19Zm.21,37.27L689,371.68l-31.57-18.23-31.37,18.23,31.57,18.23" transform="translate(-477.44 -185.18)"/><polygon class="cls-6" points="211.59 186.5 180.23 204.73 148.66 186.51 180.02 168.28 211.59 186.5"/><polygon class="cls-3" points="180.23 205.55 180.23 206.37 147.24 187.32 147.24 186.51 180.23 205.55"/><polygon class="cls-3" points="213.01 186.5 213 187.32 180.23 206.37 180.23 205.55 213.01 186.5"/></g><g class="cls-2"><polygon class="cls-3" points="243.61 204.88 243.6 205.69 212.03 187.47 212.03 186.65 243.61 204.88"/><polygon class="cls-3" points="212.03 186.65 212.03 187.47 180.66 205.69 180.67 204.88 212.03 186.65"/><polygon class="cls-4" points="212.24 223.11 212.24 223.92 180.66 205.69 180.67 204.88 212.24 223.11"/><polygon class="cls-5" points="243.61 204.88 243.6 205.69 212.24 223.92 212.24 223.11 243.61 204.88"/><polygon class="cls-6" points="243.61 204.88 212.24 223.11 180.67 204.88 212.03 186.65 243.61 204.88"/><polygon class="cls-3" points="212.24 223.93 212.24 224.74 179.25 205.69 179.25 204.88 212.24 223.93"/><polygon class="cls-3" points="245.02 204.88 245.02 205.69 212.24 224.74 212.24 223.93 245.02 204.88"/><path class="cls-3" d="M689.47,371l33,19-32.78,19-33-19Zm.21,37.27L721,390.06l-31.57-18.23-31.37,18.23,31.57,18.23" transform="translate(-477.44 -185.18)"/></g><g class="cls-2"><polygon class="cls-3" points="148.34 186.51 148.34 187.32 116.77 169.1 116.77 168.28 148.34 186.51"/><polygon class="cls-3" points="116.77 168.28 116.77 169.1 85.41 187.32 85.41 186.51 116.77 168.28"/><polygon class="cls-4" points="116.98 204.73 116.98 205.55 85.41 187.32 85.41 186.51 116.98 204.73"/><polygon class="cls-5" points="148.34 186.51 148.34 187.32 116.98 205.55 116.98 204.73 148.34 186.51"/><path class="cls-3" d="M594.21,352.64l33,19-32.77,19-33-19Zm.21,37.27,31.36-18.22-31.57-18.22-31.36,18.22,31.57,18.22" transform="translate(-477.44 -185.18)"/><polygon class="cls-6" points="148.34 186.51 116.98 204.73 85.41 186.51 116.77 168.28 148.34 186.51"/><polygon class="cls-3" points="116.98 205.55 116.98 206.36 84 187.32 84 186.51 116.98 205.55"/><polygon class="cls-3" points="149.75 186.51 149.75 187.32 116.98 206.36 116.98 205.55 149.75 186.51"/></g><g class="cls-2"><polygon class="cls-3" points="179.72 204.88 179.71 205.69 148.15 187.47 148.15 186.65 179.72 204.88"/><polygon class="cls-3" points="148.15 186.65 148.15 187.47 116.78 205.7 116.78 204.88 148.15 186.65"/><polygon class="cls-4" points="148.35 223.11 148.35 223.92 116.78 205.7 116.78 204.88 148.35 223.11"/><polygon class="cls-5" points="179.72 204.88 179.71 205.69 148.35 223.92 148.35 223.11 179.72 204.88"/><polygon class="cls-6" points="179.72 204.88 148.35 223.11 116.78 204.88 148.15 186.65 179.72 204.88"/><polygon class="cls-3" points="148.35 223.92 148.35 224.74 115.37 205.7 115.37 204.88 148.35 223.92"/><polygon class="cls-3" points="181.13 204.88 181.13 205.69 148.35 224.74 148.35 223.92 181.13 204.88"/><path class="cls-3" d="M625.58,371l33,19-32.78,19-33-19Zm.2,37.27,31.37-18.23-31.57-18.22-31.37,18.23,31.57,18.22" transform="translate(-477.44 -185.18)"/></g><g class="cls-2"><polygon class="cls-3" points="148.34 223.75 148.33 224.57 116.77 206.34 116.77 205.53 148.34 223.75"/><polygon class="cls-3" points="116.77 205.53 116.77 206.34 85.41 224.57 85.41 223.75 116.77 205.53"/><polygon class="cls-4" points="116.97 241.98 116.97 242.79 85.41 224.57 85.41 223.75 116.97 241.98"/><polygon class="cls-5" points="148.34 223.75 148.33 224.57 116.97 242.79 116.97 241.98 148.34 223.75"/><path class="cls-3" d="M594.21,389.89l33,19-32.78,19-33-19Zm.2,37.27,31.36-18.22-31.57-18.22-31.36,18.22,31.57,18.22" transform="translate(-477.44 -185.18)"/><polygon class="cls-6" points="148.34 223.75 116.97 241.98 85.41 223.75 116.77 205.53 148.34 223.75"/><polygon class="cls-3" points="116.98 242.8 116.98 243.61 83.99 224.57 84 223.75 116.98 242.8"/><polygon class="cls-3" points="149.75 223.75 149.75 224.57 116.98 243.61 116.98 242.8 149.75 223.75"/></g><g class="cls-2"><polygon class="cls-5" points="276.49 121.47 276.3 186.68 244.23 205.32 244.41 140.11 276.49 121.47"/><polygon class="cls-4" points="244.41 140.11 244.23 205.32 211.96 186.69 212.14 121.47 244.41 140.11"/><polygon class="cls-6" points="276.49 121.47 244.41 140.11 212.14 121.47 244.21 102.83 276.49 121.47"/></g><g class="cls-2"><polygon class="cls-5" points="117.14 86.94 116.9 168.46 84.83 187.1 85.06 105.58 117.14 86.94"/><polygon class="cls-4" points="85.06 105.58 84.83 187.1 52.55 168.46 52.78 86.94 85.06 105.58"/><polygon class="cls-6" points="117.14 86.94 85.06 105.58 52.78 86.94 84.85 68.31 117.14 86.94"/></g><g class="cls-2"><polygon class="cls-5" points="85.29 171.76 85.24 188.06 53.17 206.7 53.22 190.4 85.29 171.76"/><polygon class="cls-4" points="53.22 190.4 53.17 206.7 20.89 188.06 20.94 171.76 53.22 190.4"/><polygon class="cls-6" points="85.29 171.76 53.22 190.4 20.94 171.76 53.01 153.12 85.29 171.76"/></g><g class="cls-2"><polygon class="cls-5" points="117.06 173.4 116.97 206 84.91 224.64 85 192.03 117.06 173.4"/><polygon class="cls-4" points="85 192.03 84.91 224.64 52.63 206 52.72 173.39 85 192.03"/><polygon class="cls-6" points="117.06 173.4 85 192.03 52.72 173.39 84.78 154.76 117.06 173.4"/></g></g><g id="barrier_2" data-name="barrier 2"><g class="cls-2"><polygon class="cls-7" points="123.14 194.51 123.09 210.81 116.87 214.43 116.92 198.13 123.14 194.51"/><polygon class="cls-8" points="116.92 198.13 116.87 214.43 110.61 210.81 110.66 194.51 116.92 198.13"/><polygon class="cls-9" points="123.14 194.51 116.92 198.13 110.66 194.51 116.88 190.9 123.14 194.51"/></g><g class="cls-2"><polygon class="cls-7" points="130.55 198.51 130.5 214.81 124.28 218.44 124.32 202.13 130.55 198.51"/><polygon class="cls-8" points="124.32 202.13 124.28 218.44 118 214.81 118.05 198.51 124.32 202.13"/><polygon class="cls-9" points="130.55 198.51 124.32 202.13 118.05 198.51 124.28 194.89 130.55 198.51"/></g><g class="cls-2"><polygon class="cls-7" points="137.44 202.43 137.39 218.73 131.16 222.35 131.21 206.04 137.44 202.43"/><polygon class="cls-8" points="131.21 206.04 131.16 222.35 124.9 218.73 124.94 202.43 131.21 206.04"/><polygon class="cls-9" points="137.44 202.43 131.21 206.04 124.94 202.43 131.17 198.81 137.44 202.43"/></g><g class="cls-2"><polygon class="cls-7" points="144.93 206.93 144.89 223.23 138.66 226.85 138.7 210.54 144.93 206.93"/><polygon class="cls-8" points="138.7 210.54 138.66 226.85 132.4 223.23 132.44 206.93 138.7 210.54"/><polygon class="cls-9" points="144.93 206.93 138.7 210.54 132.44 206.93 138.67 203.31 144.93 206.93"/></g></g><g id="barrier_3" data-name="barrier 3"><g class="cls-2"><polygon class="cls-7" points="147.22 132.91 147.17 149.21 140.95 152.83 140.99 136.52 147.22 132.91"/><polygon class="cls-8" points="140.99 136.52 140.95 152.83 134.68 149.21 134.73 132.91 140.99 136.52"/><polygon class="cls-9" points="147.22 132.91 140.99 136.52 134.73 132.91 140.95 129.29 147.22 132.91"/></g><g class="cls-2"><polygon class="cls-7" points="140.51 136.74 140.46 153.05 134.24 156.66 134.29 140.36 140.51 136.74"/><polygon class="cls-8" points="134.29 140.36 134.24 156.66 127.97 153.04 128.02 136.74 134.29 140.36"/><polygon class="cls-9" points="140.51 136.74 134.29 140.36 128.02 136.74 134.24 133.12 140.51 136.74"/></g><g class="cls-2"><polygon class="cls-7" points="133.59 140.74 133.55 157.04 127.32 160.66 127.36 144.36 133.59 140.74"/><polygon class="cls-8" points="127.36 144.36 127.32 160.66 121.05 157.05 121.1 140.74 127.36 144.36"/><polygon class="cls-9" points="133.59 140.74 127.36 144.36 121.1 140.74 127.33 137.12 133.59 140.74"/></g></g><g id="barrier_1" data-name="barrier 1"><g class="cls-2"><polygon class="cls-7" points="243.28 188.89 243.23 205.19 237.01 208.81 237.06 192.5 243.28 188.89"/><polygon class="cls-8" points="237.06 192.5 237.01 208.81 230.75 205.19 230.79 188.89 237.06 192.5"/><polygon class="cls-9" points="243.28 188.89 237.06 192.5 230.79 188.89 237.01 185.27 243.28 188.89"/></g><g class="cls-2"><polygon class="cls-7" points="236.57 192.72 236.53 209.03 230.3 212.64 230.35 196.34 236.57 192.72"/><polygon class="cls-8" points="230.35 196.34 230.3 212.64 224.03 209.02 224.08 192.72 230.35 196.34"/><polygon class="cls-9" points="236.57 192.72 230.35 196.34 224.08 192.72 230.3 189.1 236.57 192.72"/></g><g class="cls-2"><polygon class="cls-7" points="229.66 196.72 229.61 213.02 223.38 216.64 223.43 200.34 229.66 196.72"/><polygon class="cls-8" points="223.43 200.34 223.38 216.64 217.12 213.03 217.16 196.72 223.43 200.34"/><polygon class="cls-9" points="229.66 196.72 223.43 200.34 217.16 196.72 223.39 193.1 229.66 196.72"/></g><g class="cls-2"><polygon class="cls-7" points="222.69 200.74 222.65 217.04 216.43 220.66 216.47 204.36 222.69 200.74"/><polygon class="cls-8" points="216.47 204.36 216.43 220.66 210.16 217.04 210.21 200.74 216.47 204.36"/><polygon class="cls-9" points="222.69 200.74 216.47 204.36 210.21 200.74 216.43 197.12 222.69 200.74"/></g><g class="cls-2"><polygon class="cls-7" points="215.99 204.57 215.94 220.88 209.72 224.5 209.77 208.19 215.99 204.57"/><polygon class="cls-8" points="209.77 208.19 209.72 224.5 203.45 220.88 203.5 204.57 209.77 208.19"/><polygon class="cls-9" points="215.99 204.57 209.77 208.19 203.5 204.57 209.72 200.96 215.99 204.57"/></g></g><g id="Layer_6" data-name="Layer 6"><g class="cls-2"><polygon class="cls-5" points="212.18 208.63 212.13 224.94 180.06 243.58 180.1 227.27 212.18 208.63"/><polygon class="cls-4" points="180.1 227.27 180.06 243.58 147.78 224.94 147.83 208.64 180.1 227.27"/><polygon class="cls-6" points="212.18 208.63 180.1 227.27 147.83 208.64 179.9 190 212.18 208.63"/></g><g class="cls-2"><polygon class="cls-5" points="180.64 226.68 180.59 242.98 148.53 261.62 148.58 245.31 180.64 226.68"/><polygon class="cls-4" points="148.58 245.31 148.53 261.62 116.25 242.98 116.3 226.68 148.58 245.31"/><polygon class="cls-6" points="180.64 226.68 148.58 245.31 116.3 226.68 148.36 208.04 180.64 226.68"/></g></g></svg>