<svg xmlns="http://www.w3.org/2000/svg" viewBox="0 0 345.33 310.03"><defs><style>.cls-1{fill:#1d1d1b;}.cls-2,.cls-3,.cls-4{fill:none;stroke:#fff;stroke-miterlimit:10;}.cls-2{stroke-width:8px;}.cls-3{stroke-width:3px;}.cls-5{font-size:18px;fill:#fff;font-family:Calibri-Light, Calibri;}</style></defs><title>languagealteration</title><g id="Layer_5" data-name="Layer 5"><circle class="cls-1" cx="158.31" cy="155.01" r="155.01"/></g><g id="Barricades"><line class="cls-2" y1="236.02" x2="345.33" y2="236.02"/><line class="cls-3" y1="145.36" x2="345.33" y2="145.36"/><line class="cls-4" x1="303" y1="145.36" x2="303" y2="236.02"/><line class="cls-4" x1="298" y1="145.36" x2="298" y2="236.02"/><line class="cls-4" x1="293.33" y1="145.36" x2="293.33" y2="236.02"/><line class="cls-4" x1="287.67" y1="145.36" x2="287.67" y2="236.02"/><line class="cls-4" x1="283.33" y1="145.36" x2="283.33" y2="236.02"/><line class="cls-4" x1="312" y1="145.36" x2="312" y2="236.02"/><line class="cls-4" x1="307.67" y1="145.36" x2="307.67" y2="236.02"/><line class="cls-4" x1="278.33" y1="145.36" x2="278.33" y2="236.02"/><line class="cls-4" x1="273.67" y1="145.36" x2="273.67" y2="236.02"/><line class="cls-4" x1="268" y1="145.36" x2="268" y2="236.02"/><line class="cls-4" x1="263.33" y1="145.36" x2="263.33" y2="236.02"/><line class="cls-4" x1="64.67" y1="145.36" x2="64.67" y2="236.02"/><line class="cls-4" x1="59.67" y1="145.36" x2="59.67" y2="236.02"/><line class="cls-4" x1="55" y1="145.36" x2="55" y2="236.02"/><line class="cls-4" x1="49.33" y1="145.36" x2="49.33" y2="236.02"/><line class="cls-4" x1="45" y1="145.36" x2="45" y2="236.02"/><line class="cls-4" x1="40" y1="145.36" x2="40" y2="236.02"/><line class="cls-4" x1="35.33" y1="145.36" x2="35.33" y2="236.02"/><line class="cls-4" x1="29.67" y1="145.36" x2="29.67" y2="236.02"/><line class="cls-4" x1="25" y1="145.36" x2="25" y2="236.02"/><line class="cls-4" x1="19.83" y1="145.36" x2="19.83" y2="236.02"/><line class="cls-4" x1="14.83" y1="145.36" x2="14.83" y2="236.02"/><line class="cls-4" x1="10.17" y1="145.36" x2="10.17" y2="236.02"/><line class="cls-4" x1="4.5" y1="145.36" x2="4.5" y2="236.02"/><line class="cls-4" x1="258.33" y1="145.36" x2="258.33" y2="236.02"/><line class="cls-4" x1="253.67" y1="145.36" x2="253.67" y2="236.02"/><line class="cls-4" x1="248" y1="145.36" x2="248" y2="236.02"/><line class="cls-4" x1="243.67" y1="145.36" x2="243.67" y2="236.02"/><line class="cls-4" x1="238.67" y1="145.36" x2="238.67" y2="236.02"/><line class="cls-4" x1="234" y1="145.36" x2="234" y2="236.02"/><line class="cls-4" x1="228.33" y1="145.36" x2="228.33" y2="236.02"/><line class="cls-4" x1="224" y1="145.36" x2="224" y2="236.02"/><line class="cls-4" x1="219" y1="145.36" x2="219" y2="236.02"/><line class="cls-4" x1="214.33" y1="145.36" x2="214.33" y2="236.02"/><line class="cls-4" x1="208.67" y1="145.36" x2="208.67" y2="236.02"/><line class="cls-4" x1="204" y1="145.36" x2="204" y2="236.02"/><line class="cls-4" x1="199" y1="145.36" x2="199" y2="236.02"/><line class="cls-4" x1="194.33" y1="145.36" x2="194.33" y2="236.02"/><line class="cls-4" x1="188.67" y1="145.36" x2="188.67" y2="236.02"/><line class="cls-4" x1="184.33" y1="145.36" x2="184.33" y2="236.02"/><line class="cls-4" x1="179.33" y1="145.36" x2="179.33" y2="236.02"/><line class="cls-4" x1="174.67" y1="145.36" x2="174.67" y2="236.02"/><line class="cls-4" x1="169" y1="145.36" x2="169" y2="236.02"/><line class="cls-4" x1="164.67" y1="145.36" x2="164.67" y2="236.02"/><line class="cls-4" x1="159.67" y1="145.36" x2="159.67" y2="236.02"/><line class="cls-4" x1="155" y1="145.36" x2="155" y2="236.02"/><line class="cls-4" x1="149.33" y1="145.36" x2="149.33" y2="236.02"/><line class="cls-4" x1="144.67" y1="145.36" x2="144.67" y2="236.02"/><line class="cls-4" x1="139.67" y1="145.36" x2="139.67" y2="236.02"/><line class="cls-4" x1="135" y1="145.36" x2="135" y2="236.02"/><line class="cls-4" x1="129.33" y1="145.36" x2="129.33" y2="236.02"/><line class="cls-4" x1="125" y1="145.36" x2="125" y2="236.02"/><line class="cls-4" x1="120" y1="145.36" x2="120" y2="236.02"/><line class="cls-4" x1="115.33" y1="145.36" x2="115.33" y2="236.02"/><line class="cls-4" x1="109.67" y1="145.36" x2="109.67" y2="236.02"/><line class="cls-4" x1="105.33" y1="145.36" x2="105.33" y2="236.02"/><line class="cls-4" x1="100.33" y1="145.36" x2="100.33" y2="236.02"/><line class="cls-4" x1="95.67" y1="145.36" x2="95.67" y2="236.02"/><line class="cls-4" x1="90" y1="145.36" x2="90" y2="236.02"/><line class="cls-4" x1="85.33" y1="145.36" x2="85.33" y2="236.02"/><line class="cls-4" x1="80.33" y1="145.36" x2="80.33" y2="236.02"/><line class="cls-4" x1="75.67" y1="145.36" x2="75.67" y2="236.02"/><line class="cls-4" x1="70" y1="145.36" x2="70" y2="236.02"/><text class="cls-5" transform="translate(56 91.36)"><tspan xml:space="preserve">T E C H N I C A L  B A R R I E R</tspan></text></g></svg>