<svg xmlns="http://www.w3.org/2000/svg" viewBox="0 0 310.03 310.03"><defs><style>.cls-1{fill:#1d1d1b;}.cls-2{isolation:isolate;}.cls-3{fill:#7f7f7f;}.cls-4{fill:#898989;}.cls-5{fill:#c5c5c5;}.cls-6{fill:#dcdcdc;}.cls-7{fill:#8c8e00;}.cls-8{fill:#b7b700;}.cls-9{fill:#c7c600;}</style></defs><title>private</title><g id="Layer_5" data-name="Layer 5"><circle class="cls-1" cx="155.01" cy="155.01" r="155.01"/></g><g id="Layer_3" data-name="Layer 3"><g class="cls-2"><polygon class="cls-3" points="150.81 149.01 150.81 149.82 119.23 131.59 119.24 130.78 150.81 149.01"/><polygon class="cls-3" points="119.24 130.78 119.23 131.59 87.87 149.82 87.88 149 119.24 130.78"/><polygon class="cls-4" points="119.45 167.23 119.44 168.05 87.87 149.82 87.88 149 119.45 167.23"/><polygon class="cls-5" points="150.81 149.01 150.81 149.82 119.44 168.05 119.45 167.23 150.81 149.01"/><path class="cls-3" d="M596.67,315.14l33,19-32.77,19-33-19Zm.22,37.27,31.36-18.22L596.67,316l-31.36,18.22,31.57,18.23" transform="translate(-477.44 -185.18)"/><polygon class="cls-6" points="150.81 149.01 119.45 167.23 87.88 149 119.24 130.78 150.81 149.01"/><polygon class="cls-3" points="119.45 168.05 119.45 168.87 86.46 149.82 86.46 149 119.45 168.05"/><polygon class="cls-3" points="152.22 149.01 152.22 149.82 119.45 168.87 119.45 168.05 152.22 149.01"/></g><g class="cls-2"><polygon class="cls-5" points="183.33 113.88 183.28 130.19 151.21 148.82 151.26 132.52 183.33 113.88"/><polygon class="cls-4" points="151.26 132.52 151.21 148.82 118.94 130.19 118.99 113.89 151.26 132.52"/><polygon class="cls-6" points="183.33 113.88 151.26 132.52 118.99 113.89 151.06 95.25 183.33 113.88"/></g><g class="cls-2"><polygon class="cls-5" points="215.27 67.82 215.03 149.33 182.96 167.97 183.19 86.45 215.27 67.82"/><polygon class="cls-4" points="183.19 86.45 182.96 167.97 150.69 149.34 150.92 67.82 183.19 86.45"/><polygon class="cls-6" points="215.27 67.82 183.19 86.45 150.92 67.82 182.99 49.18 215.27 67.82"/></g><g class="cls-2"><polygon class="cls-5" points="247.33 152.63 247.28 168.94 215.21 187.57 215.26 171.27 247.33 152.63"/><polygon class="cls-4" points="215.26 171.27 215.21 187.57 182.94 168.94 182.99 152.64 215.26 171.27"/><polygon class="cls-6" points="247.33 152.63 215.26 171.27 182.99 152.64 215.06 134 247.33 152.63"/></g><g class="cls-2"><polygon class="cls-7" points="184.37 169 184.37 169.82 152.79 151.59 152.8 150.78 184.37 169"/><polygon class="cls-8" points="152.8 150.78 152.79 151.59 121.43 169.82 121.44 169 152.8 150.78"/><polygon class="cls-7" points="153.01 187.23 153 188.04 121.43 169.82 121.44 169 153.01 187.23"/><polygon class="cls-8" points="184.37 169 184.37 169.82 153 188.04 153.01 187.23 184.37 169"/><polygon class="cls-9" points="184.37 169 153.01 187.23 121.44 169 152.8 150.78 184.37 169"/><polygon class="cls-7" points="153.01 188.05 153.01 188.86 120.02 169.82 120.02 169 153.01 188.05"/><polygon class="cls-8" points="185.79 169 185.78 169.82 153.01 188.86 153.01 188.05 185.79 169"/><path class="cls-9" d="M630.24,335.13l33,19-32.78,19-33-19Zm.21,37.27,31.36-18.22L630.23,336l-31.36,18.22,31.57,18.23" transform="translate(-477.44 -185.18)"/></g><g class="cls-2"><polygon class="cls-7" points="219.84 189.69 219.84 190.51 185.88 170.9 185.88 170.08 219.84 189.69"/><polygon class="cls-8" points="185.88 170.08 185.88 170.9 152.14 190.5 152.14 189.69 185.88 170.08"/><polygon class="cls-7" points="186.1 209.3 186.1 210.12 152.14 190.5 152.14 189.69 186.1 209.3"/><polygon class="cls-8" points="219.84 189.69 219.84 190.51 186.1 210.12 186.1 209.3 219.84 189.69"/><polygon class="cls-9" points="219.84 189.69 186.1 209.3 152.14 189.69 185.88 170.08 219.84 189.69"/><polygon class="cls-7" points="186.11 210.12 186.11 210.93 150.72 190.5 150.73 189.69 186.11 210.12"/><polygon class="cls-8" points="221.26 189.69 221.25 190.51 186.11 210.93 186.11 210.12 221.26 189.69"/><path class="cls-9" d="M663.31,354.44l35.38,20.43L663.55,395.3l-35.38-20.43Zm.23,40,33.74-19.61-34-19.61-33.74,19.61,34,19.61" transform="translate(-477.44 -185.18)"/></g><g class="cls-2"><polygon class="cls-7" points="246.6 204.88 246.6 205.7 215.03 187.47 215.03 186.65 246.6 204.88"/><polygon class="cls-8" points="215.03 186.65 215.03 187.47 183.67 205.69 183.67 204.88 215.03 186.65"/><polygon class="cls-7" points="215.24 223.11 215.24 223.92 183.67 205.69 183.67 204.88 215.24 223.11"/><polygon class="cls-8" points="246.6 204.88 246.6 205.7 215.24 223.92 215.24 223.11 246.6 204.88"/><polygon class="cls-9" points="246.6 204.88 215.24 223.11 183.67 204.88 215.03 186.65 246.6 204.88"/><polygon class="cls-7" points="215.25 223.92 215.25 224.74 182.26 205.69 182.26 204.88 215.25 223.92"/><polygon class="cls-8" points="248.02 204.88 248.01 205.7 215.25 224.74 215.25 223.92 248.02 204.88"/><path class="cls-9" d="M692.47,371l33,19-32.77,19-33-19Zm.22,37.27L724,390.06l-31.57-18.23-31.36,18.22,31.57,18.23" transform="translate(-477.44 -185.18)"/></g><g class="cls-2"><polygon class="cls-7" points="149.88 185.8 149.88 186.61 115.92 167 115.92 166.19 149.88 185.8"/><polygon class="cls-8" points="115.92 166.19 115.92 167 82.17 186.61 82.17 185.8 115.92 166.19"/><polygon class="cls-7" points="116.14 205.41 116.14 206.22 82.17 186.61 82.17 185.8 116.14 205.41"/><polygon class="cls-8" points="149.88 185.8 149.88 186.61 116.14 206.22 116.14 205.41 149.88 185.8"/><path class="cls-9" d="M593.35,350.55,628.74,371,593.58,391.4,558.2,371Zm.23,40L627.32,371l-34-19.61L559.61,371l34,19.61" transform="translate(-477.44 -185.18)"/><polygon class="cls-9" points="149.88 185.8 116.14 205.41 82.17 185.8 115.92 166.19 149.88 185.8"/><polygon class="cls-7" points="116.14 206.23 116.14 207.04 80.76 186.61 80.76 185.8 116.14 206.23"/><polygon class="cls-8" points="151.3 185.8 151.29 186.61 116.14 207.04 116.14 206.23 151.3 185.8"/></g><g class="cls-2"><polygon class="cls-7" points="182.72 204.88 182.71 205.69 151.15 187.47 151.15 186.66 182.72 204.88"/><polygon class="cls-8" points="151.15 186.66 151.15 187.47 119.79 205.69 119.79 204.88 151.15 186.66"/><polygon class="cls-7" points="151.35 223.1 151.35 223.92 119.79 205.69 119.79 204.88 151.35 223.1"/><polygon class="cls-8" points="182.72 204.88 182.71 205.69 151.35 223.92 151.35 223.1 182.72 204.88"/><path class="cls-9" d="M628.58,371l33,19-32.77,19-33-19Zm.21,37.27,31.36-18.22-31.57-18.22-31.36,18.22,31.57,18.22" transform="translate(-477.44 -185.18)"/><polygon class="cls-9" points="182.72 204.88 151.35 223.1 119.79 204.88 151.15 186.66 182.72 204.88"/><polygon class="cls-7" points="151.36 223.92 151.36 224.74 118.37 205.69 118.38 204.88 151.36 223.92"/><polygon class="cls-8" points="184.13 204.88 184.13 205.69 151.36 224.74 151.36 223.92 184.13 204.88"/></g><g class="cls-2"><polygon class="cls-7" points="214.44 223.13 214.44 223.94 182.88 205.72 182.88 204.91 214.44 223.13"/><polygon class="cls-8" points="182.88 204.91 182.88 205.72 151.51 223.94 151.52 223.13 182.88 204.91"/><polygon class="cls-7" points="183.08 241.35 183.08 242.17 151.51 223.94 151.52 223.13 183.08 241.35"/><polygon class="cls-8" points="214.44 223.13 214.44 223.94 183.08 242.17 183.08 241.35 214.44 223.13"/><path class="cls-9" d="M660.31,389.26l33,19-32.77,19-33-19Zm.21,37.27,31.36-18.22-31.57-18.22L629,408.31l31.57,18.22" transform="translate(-477.44 -185.18)"/><polygon class="cls-9" points="214.44 223.13 183.08 241.35 151.52 223.13 182.88 204.91 214.44 223.13"/><polygon class="cls-7" points="183.09 242.17 183.09 242.99 150.1 223.94 150.1 223.13 183.09 242.17"/><polygon class="cls-8" points="215.86 223.13 215.85 223.94 183.09 242.99 183.09 242.17 215.86 223.13"/></g><g class="cls-2"><polygon class="cls-7" points="119.43 205.88 119.43 206.69 87.86 188.47 87.87 187.66 119.43 205.88"/><polygon class="cls-8" points="87.87 187.66 87.86 188.47 56.5 206.69 56.51 205.88 87.87 187.66"/><polygon class="cls-7" points="88.07 224.1 88.07 224.92 56.5 206.69 56.51 205.88 88.07 224.1"/><polygon class="cls-8" points="119.43 205.88 119.43 206.69 88.07 224.92 88.07 224.1 119.43 205.88"/><path class="cls-9" d="M565.3,372l33,19-32.77,19-33-19Zm.21,37.27,31.36-18.22L565.3,372.83l-31.36,18.22,31.57,18.22" transform="translate(-477.44 -185.18)"/><polygon class="cls-9" points="119.43 205.88 88.07 224.1 56.51 205.88 87.87 187.66 119.43 205.88"/><polygon class="cls-7" points="88.08 224.92 88.07 225.74 55.09 206.69 55.09 205.88 88.08 224.92"/><polygon class="cls-8" points="120.84 205.88 120.84 206.69 88.07 225.74 88.08 224.92 120.84 205.88"/></g><g class="cls-2"><polygon class="cls-7" points="151.34 223.76 151.34 224.57 119.77 206.35 119.78 205.53 151.34 223.76"/><polygon class="cls-8" points="119.78 205.53 119.77 206.35 88.41 224.58 88.41 223.76 119.78 205.53"/><polygon class="cls-7" points="119.98 241.99 119.97 242.8 88.41 224.58 88.41 223.76 119.98 241.99"/><polygon class="cls-8" points="151.34 223.76 151.34 224.57 119.97 242.8 119.98 241.99 151.34 223.76"/><polygon class="cls-9" points="151.34 223.76 119.98 241.99 88.41 223.76 119.78 205.53 151.34 223.76"/><polygon class="cls-7" points="119.98 242.8 119.98 243.62 86.99 224.57 86.99 223.76 119.98 242.8"/><polygon class="cls-8" points="152.75 223.76 152.75 224.57 119.98 243.62 119.98 242.8 152.75 223.76"/><path class="cls-9" d="M597.2,389.89l33,19-32.78,19-33-19Zm.21,37.27,31.37-18.23-31.57-18.22-31.37,18.23,31.57,18.22" transform="translate(-477.44 -185.18)"/></g><g class="cls-2"><polygon class="cls-5" points="279.49 121.47 279.3 186.68 247.23 205.32 247.41 140.11 279.49 121.47"/><polygon class="cls-4" points="247.41 140.11 247.23 205.32 214.95 186.68 215.13 121.47 247.41 140.11"/><polygon class="cls-6" points="279.49 121.47 247.41 140.11 215.13 121.47 247.21 102.83 279.49 121.47"/></g><g class="cls-2"><polygon class="cls-5" points="152.98 84.68 152.8 149.89 120.73 168.53 120.91 103.32 152.98 84.68"/><polygon class="cls-4" points="120.91 103.32 120.73 168.53 88.44 149.89 88.63 84.68 120.91 103.32"/><polygon class="cls-6" points="152.98 84.68 120.91 103.32 88.63 84.68 120.7 66.04 152.98 84.68"/></g><g class="cls-2"><polygon class="cls-8" points="120.13 86.94 119.89 168.46 87.83 187.09 88.06 105.58 120.13 86.94"/><polygon class="cls-7" points="88.06 105.58 87.83 187.09 55.56 168.46 55.79 86.94 88.06 105.58"/><polygon class="cls-9" points="120.13 86.94 88.06 105.58 55.79 86.94 87.85 68.31 120.13 86.94"/></g><g class="cls-2"><polygon class="cls-5" points="88.29 171.76 88.24 188.06 56.17 206.7 56.22 190.4 88.29 171.76"/><polygon class="cls-4" points="56.22 190.4 56.17 206.7 23.89 188.06 23.94 171.76 56.22 190.4"/><polygon class="cls-6" points="88.29 171.76 56.22 190.4 23.94 171.76 56.01 153.12 88.29 171.76"/></g><g class="cls-2"><polygon class="cls-5" points="183.1 227.09 183.06 243.4 150.99 262.03 151.03 245.73 183.1 227.09"/><polygon class="cls-4" points="151.03 245.73 150.99 262.03 118.7 243.4 118.75 227.09 151.03 245.73"/><polygon class="cls-6" points="183.1 227.09 151.03 245.73 118.75 227.09 150.82 208.46 183.1 227.09"/></g></g><g id="people"><circle class="cls-1" cx="149.62" cy="163.91" r="1.94"/><circle class="cls-1" cx="158.01" cy="161.97" r="1.94"/><circle class="cls-1" cx="154.14" cy="156.95" r="1.94"/><circle class="cls-1" cx="625.74" cy="342.88" r="1.94" transform="translate(-564.05 116.88) rotate(-25.44)"/><circle class="cls-1" cx="618.74" cy="346.94" r="1.94" transform="translate(-566.48 114.27) rotate(-25.44)"/><circle class="cls-1" cx="640.93" cy="346.44" r="1.94" transform="translate(-564.11 123.75) rotate(-25.44)"/><circle class="cls-1" cx="151.36" cy="175.64" r="1.94"/><circle class="cls-1" cx="159.75" cy="173.71" r="1.94"/><circle class="cls-1" cx="155.88" cy="168.68" r="1.94"/><circle class="cls-1" cx="627.48" cy="354.61" r="1.94" transform="translate(-568.92 118.77) rotate(-25.44)"/><circle class="cls-1" cx="620.48" cy="358.68" r="1.94" transform="translate(-571.35 116.16) rotate(-25.44)"/><circle class="cls-1" cx="642.67" cy="358.18" r="1.94" transform="translate(-568.98 125.64) rotate(-25.44)"/><circle class="cls-1" cx="174.78" cy="181.06" r="1.94"/><circle class="cls-1" cx="183.17" cy="179.12" r="1.94"/><circle class="cls-1" cx="179.29" cy="174.1" r="1.94"/><circle class="cls-1" cx="650.9" cy="360.03" r="1.94" transform="translate(-568.98 129.35) rotate(-25.44)"/><circle class="cls-1" cx="643.9" cy="364.09" r="1.94" transform="translate(-571.41 126.74) rotate(-25.44)"/><circle class="cls-1" cx="666.09" cy="363.59" r="1.94" transform="translate(-569.04 136.22) rotate(-25.44)"/><circle class="cls-1" cx="137.69" cy="186.48" r="1.94"/><circle class="cls-1" cx="146.08" cy="184.54" r="1.94"/><circle class="cls-1" cx="142.21" cy="179.52" r="1.94"/><circle class="cls-1" cx="613.81" cy="365.45" r="1.94" transform="translate(-574.91 113.95) rotate(-25.44)"/><circle class="cls-1" cx="606.81" cy="369.51" r="1.94" transform="translate(-577.33 111.33) rotate(-25.44)"/><circle class="cls-1" cx="629" cy="369.01" r="1.94" transform="translate(-574.96 120.82) rotate(-25.44)"/><circle class="cls-1" cx="124.46" cy="175.64" r="1.94"/><circle class="cls-1" cx="132.85" cy="173.71" r="1.94"/><circle class="cls-1" cx="128.98" cy="168.68" r="1.94"/><circle class="cls-1" cx="601.41" cy="356.36" r="1.94" transform="translate(-572.2 107.74) rotate(-25.44)"/><circle class="cls-1" cx="593.58" cy="358.68" r="1.94" transform="translate(-573.96 104.6) rotate(-25.44)"/><circle class="cls-1" cx="615.77" cy="358.18" r="1.94" transform="translate(-571.59 114.08) rotate(-25.44)"/><circle class="cls-1" cx="108.72" cy="189.48" r="1.94"/><circle class="cls-1" cx="117.11" cy="187.55" r="1.94"/><circle class="cls-1" cx="113.23" cy="182.52" r="1.94"/><circle class="cls-1" cx="584.84" cy="368.45" r="1.94" transform="translate(-579.01 101.79) rotate(-25.44)"/><circle class="cls-1" cx="577.84" cy="372.52" r="1.94" transform="translate(-581.43 99.18) rotate(-25.44)"/><circle class="cls-1" cx="600.02" cy="372.02" r="1.94" transform="translate(-579.06 108.66) rotate(-25.44)"/><circle class="cls-1" cx="133.6" cy="199.47" r="1.94"/><circle class="cls-1" cx="141.99" cy="197.54" r="1.94"/><circle class="cls-1" cx="138.11" cy="192.51" r="1.94"/><circle class="cls-1" cx="609.72" cy="378.44" r="1.94" transform="translate(-580.88 113.45) rotate(-25.44)"/><circle class="cls-1" cx="602.72" cy="382.51" r="1.94" transform="translate(-583.31 110.84) rotate(-25.44)"/><circle class="cls-1" cx="624.9" cy="382.01" r="1.94" transform="translate(-580.94 120.32) rotate(-25.44)"/><circle class="cls-1" cx="160.14" cy="191.9" r="1.94"/><circle class="cls-1" cx="168.53" cy="189.96" r="1.94"/><circle class="cls-1" cx="164.66" cy="184.94" r="1.94"/><circle class="cls-1" cx="636.26" cy="370.86" r="1.94" transform="translate(-575.06 124.12) rotate(-25.44)"/><circle class="cls-1" cx="629.26" cy="374.93" r="1.94" transform="translate(-577.48 121.5) rotate(-25.44)"/><circle class="cls-1" cx="651.45" cy="374.43" r="1.94" transform="translate(-575.12 130.99) rotate(-25.44)"/><circle class="cls-1" cx="189.61" cy="190.82" r="1.94"/><circle class="cls-1" cx="198" cy="188.88" r="1.94"/><circle class="cls-1" cx="194.13" cy="183.86" r="1.94"/><circle class="cls-1" cx="665.73" cy="369.79" r="1.94" transform="translate(-571.73 136.67) rotate(-25.44)"/><circle class="cls-1" cx="658.73" cy="373.85" r="1.94" transform="translate(-574.16 134.06) rotate(-25.44)"/><circle class="cls-1" cx="680.92" cy="373.35" r="1.94" transform="translate(-571.79 143.54) rotate(-25.44)"/><circle class="cls-1" cx="206.32" cy="197.93" r="1.94"/><circle class="cls-1" cx="214.71" cy="195.99" r="1.94"/><circle class="cls-1" cx="210.83" cy="190.97" r="1.94"/><circle class="cls-1" cx="682.44" cy="376.9" r="1.94" transform="translate(-573.17 144.54) rotate(-25.44)"/><circle class="cls-1" cx="675.44" cy="380.96" r="1.94" transform="translate(-575.6 141.93) rotate(-25.44)"/><circle class="cls-1" cx="697.63" cy="380.46" r="1.94" transform="translate(-573.23 151.41) rotate(-25.44)"/><circle class="cls-1" cx="217.41" cy="208.77" r="1.94"/><circle class="cls-1" cx="225.8" cy="206.83" r="1.94"/><circle class="cls-1" cx="221.93" cy="201.81" r="1.94"/><circle class="cls-1" cx="693.53" cy="387.73" r="1.94" transform="translate(-576.75 150.36) rotate(-25.44)"/><circle class="cls-1" cx="686.53" cy="391.8" r="1.94" transform="translate(-579.17 147.74) rotate(-25.44)"/><circle class="cls-1" cx="708.72" cy="391.3" r="1.94" transform="translate(-576.81 157.23) rotate(-25.44)"/><circle class="cls-1" cx="189.41" cy="214.65" r="1.94"/><circle class="cls-1" cx="197.8" cy="212.71" r="1.94"/><circle class="cls-1" cx="193.93" cy="207.69" r="1.94"/><circle class="cls-1" cx="665.53" cy="393.62" r="1.94" transform="translate(-581.99 138.9) rotate(-25.44)"/><circle class="cls-1" cx="658.53" cy="397.68" r="1.94" transform="translate(-584.42 136.29) rotate(-25.44)"/><circle class="cls-1" cx="680.72" cy="397.18" r="1.94" transform="translate(-582.05 145.77) rotate(-25.44)"/><circle class="cls-1" cx="180.2" cy="202.96" r="1.94"/><circle class="cls-1" cx="188.59" cy="201.02" r="1.94"/><circle class="cls-1" cx="184.72" cy="195.99" r="1.94"/><circle class="cls-1" cx="656.32" cy="381.92" r="1.94" transform="translate(-577.86 133.81) rotate(-25.44)"/><circle class="cls-1" cx="649.32" cy="385.99" r="1.94" transform="translate(-580.29 131.19) rotate(-25.44)"/><circle class="cls-1" cx="671.51" cy="385.49" r="1.94" transform="translate(-577.92 140.68) rotate(-25.44)"/><circle class="cls-1" cx="156.98" cy="205.29" r="1.94"/><circle class="cls-1" cx="165.37" cy="203.35" r="1.94"/><circle class="cls-1" cx="161.49" cy="198.33" r="1.94"/><circle class="cls-1" cx="633.1" cy="384.25" r="1.94" transform="translate(-581.11 124.06) rotate(-25.44)"/><circle class="cls-1" cx="626.1" cy="388.32" r="1.94" transform="translate(-583.54 121.44) rotate(-25.44)"/><circle class="cls-1" cx="648.87" cy="392.87" r="1.94" transform="translate(-583.29 131.67) rotate(-25.44)"/><circle class="cls-1" cx="650.28" cy="399.83" r="1.94" transform="translate(-586.14 132.95) rotate(-25.44)"/><circle class="cls-1" cx="644.74" cy="381.17" r="1.94" transform="translate(-578.66 128.76) rotate(-25.44)"/><circle class="cls-1" cx="647.22" cy="352.29" r="1.94" transform="translate(-566.87 185.63) rotate(-30)"/><circle class="cls-1" cx="569.93" cy="378.09" r="1.94" transform="translate(-590.12 150.44) rotate(-30)"/><circle class="cls-1" cx="597.25" cy="378.44" r="1.94" transform="translate(-586.64 164.15) rotate(-30)"/><circle class="cls-1" cx="678.92" cy="389.07" r="1.94" transform="translate(-581.02 206.41) rotate(-30)"/><circle class="cls-1" cx="690.64" cy="398.97" r="1.94" transform="translate(-584.4 213.59) rotate(-30)"/><circle class="cls-1" cx="560.22" cy="383.11" r="1.94" transform="translate(-593.94 146.26) rotate(-30)"/><circle class="cls-1" cx="595.09" cy="398.97" r="1.94" transform="translate(-597.2 165.82) rotate(-30)"/><circle class="cls-1" cx="585.32" cy="392.87" r="1.94" transform="translate(-549.12 463.21) rotate(-55.12)"/><circle class="cls-1" cx="615.51" cy="353.86" r="1.94" transform="translate(-504.2 471.27) rotate(-55.12)"/><circle class="cls-1" cx="621.36" cy="351.07" r="1.94" transform="translate(-499.41 474.88) rotate(-55.12)"/><circle class="cls-1" cx="640.16" cy="352.31" r="1.94" transform="translate(-492.37 490.83) rotate(-55.12)"/><circle class="cls-1" cx="677.18" cy="366.63" r="1.94" transform="translate(-488.27 527.33) rotate(-55.12)"/><circle class="cls-1" cx="655.41" cy="403.59" r="1.94" transform="translate(-527.91 525.3) rotate(-55.12)"/><circle class="cls-1" cx="640.87" cy="395.82" r="1.94" transform="translate(-527.76 510.04) rotate(-55.12)"/><circle class="cls-1" cx="598.34" cy="365.45" r="1.94" transform="translate(-521.05 462.15) rotate(-55.12)"/><circle class="cls-1" cx="590.67" cy="379.63" r="1.94" transform="translate(-535.97 461.93) rotate(-55.12)"/><circle class="cls-1" cx="605.59" cy="401.77" r="1.94" transform="translate(-547.74 483.65) rotate(-55.12)"/><circle class="cls-1" cx="568" cy="404.08" r="1.94" transform="translate(-565.74 453.79) rotate(-55.12)"/><circle class="cls-1" cx="122.84" cy="210.71" r="1.94"/><circle class="cls-1" cx="131.23" cy="208.77" r="1.94"/><circle class="cls-1" cx="127.35" cy="203.74" r="1.94"/><circle class="cls-1" cx="598.96" cy="389.67" r="1.94" transform="translate(-586.75 109.92) rotate(-25.44)"/><circle class="cls-1" cx="591.96" cy="393.74" r="1.94" transform="translate(-589.18 107.3) rotate(-25.44)"/><circle class="cls-1" cx="614.14" cy="393.24" r="1.94" transform="translate(-586.81 116.78) rotate(-25.44)"/><circle class="cls-1" cx="101.85" cy="203.35" r="1.94"/><circle class="cls-1" cx="110.24" cy="201.41" r="1.94"/><circle class="cls-1" cx="106.36" cy="196.39" r="1.94"/><circle class="cls-1" cx="577.97" cy="382.32" r="1.94" transform="translate(-585.63 100.18) rotate(-25.44)"/><circle class="cls-1" cx="570.97" cy="386.38" r="1.94" transform="translate(-588.05 97.57) rotate(-25.44)"/><circle class="cls-1" cx="593.15" cy="385.88" r="1.94" transform="translate(-585.69 107.05) rotate(-25.44)"/><circle class="cls-1" cx="86.04" cy="213.79" r="1.94"/><circle class="cls-1" cx="94.43" cy="211.85" r="1.94"/><circle class="cls-1" cx="90.56" cy="206.83" r="1.94"/><circle class="cls-1" cx="562.16" cy="392.76" r="1.94" transform="translate(-591.65 94.41) rotate(-25.44)"/><circle class="cls-1" cx="555.16" cy="396.82" r="1.94" transform="translate(-594.07 91.79) rotate(-25.44)"/><circle class="cls-1" cx="577.35" cy="396.32" r="1.94" transform="translate(-591.71 101.28) rotate(-25.44)"/><circle class="cls-1" cx="105.95" cy="223.44" r="1.94"/><circle class="cls-1" cx="114.33" cy="221.5" r="1.94"/><circle class="cls-1" cx="110.46" cy="216.47" r="1.94"/><circle class="cls-1" cx="582.06" cy="402.4" r="1.94" transform="translate(-593.86 103.89) rotate(-25.44)"/><circle class="cls-1" cx="575.06" cy="406.47" r="1.94" transform="translate(-596.29 101.28) rotate(-25.44)"/><circle class="cls-1" cx="597.25" cy="405.97" r="1.94" transform="translate(-593.92 110.76) rotate(-25.44)"/><circle class="cls-1" cx="193.09" cy="225.43" r="1.94"/><circle class="cls-1" cx="201.48" cy="223.49" r="1.94"/><circle class="cls-1" cx="197.61" cy="218.47" r="1.94"/><circle class="cls-1" cx="669.21" cy="404.39" r="1.94" transform="translate(-586.26 141.52) rotate(-25.44)"/><circle class="cls-1" cx="662.21" cy="408.46" r="1.94" transform="translate(-588.69 138.91) rotate(-25.44)"/><circle class="cls-1" cx="684.4" cy="407.96" r="1.94" transform="translate(-586.32 148.39) rotate(-25.44)"/></g></svg>