<svg xmlns="http://www.w3.org/2000/svg" viewBox="0 0 310.56 312.23">
    <defs>
        <style>.cls-1{fill:#1d1d1b;}.cls-2,.cls-3,.cls-4,.cls-5,.cls-8{fill:none;}.cls-2,.cls-3,.cls-4,.cls-5{stroke:#fff;}.cls-2,.cls-3,.cls-4,.cls-5,.cls-6,.cls-8{stroke-miterlimit:10;}.cls-2{stroke-width:6px;}.cls-3{stroke-width:40px;}.cls-4{stroke-width:20px;}.cls-5{stroke-width:3px;}.cls-6{fill:#be1622;}.cls-6,.cls-8{stroke:#1d1d1b;stroke-width:0.25px;}.cls-7{fill:#b2b2b2;}</style>
    </defs>
    <title>ProtestDivision</title>
    <g id="Map"><circle class="cls-1" cx="155.55" cy="155.01" r="155.01"/></g>
    <g id="Route">
        <line class="cls-2" x1="178.87" y1="91.39" x2="178.87" y2="146.17"/>
        <line class="cls-3" y1="165.15" x2="310.56" y2="165.15"/>
        <line class="cls-4" x1="99.2" y1="6.44" x2="99.2" y2="146.17"/>
        <line class="cls-4" x1="237.87" y1="17.81" x2="237.87" y2="146.17"/>
        <line class="cls-5" x1="268.87" y1="183.13" x2="178.79" y2="273.22"/>
        <line class="cls-2" x1="94.54" y1="184.13" x2="94.54" y2="298.56"/>
        <line class="cls-2" x1="145.87" x2="145.87" y2="94.06"/>
        <line class="cls-4" x1="149.42" y1="178.74" x2="179.09" y2="310.03"/>
        <line class="cls-2" x1="107.87" y1="94.06" x2="228.87" y2="94.06"/>
        <line class="cls-5" x1="147.54" y1="42.28" x2="228.87" y2="42.28"/>
        <line class="cls-5" x1="31.49" y1="59.56" x2="90.37" y2="59.56"/>
        <line class="cls-5" x1="20.85" y1="233.56" x2="92.29" y2="233.56"/>
    </g>
    <g id="Barricades">
        <rect class="cls-6" x="222.36" y="92.02" width="5.51" height="4.09"/>
        <rect class="cls-6" x="222.36" y="41.34" width="5.51" height="1.89"/>
        <rect class="cls-6" x="101.72" y="92.02" width="12.99" height="4.09"/>
        <rect class="cls-6" x="31.49" y="147.02" width="4.17" height="18.13"/>
        <rect class="cls-6" x="277.66" y="147.02" width="4.17" height="18.13"/>
        <rect class="cls-6" x="293.66" y="166.11" width="2.08" height="18.13"/>
        <rect class="cls-6" x="228.87" y="64.02" width="10.58" height="3.92"/>
        <rect class="cls-6" x="59.62" y="166.11" width="1.83" height="18.13"/>
        <rect class="cls-6" x="1008.62" y="322.05" width="8.83" height="1.92" transform="translate(-880.79 193.98) rotate(-12.74)"/>
        <rect class="cls-6" x="986.56" y="255.41" width="8.83" height="22.55" transform="translate(-868.91 187.73) rotate(-12.74)"/>
        <rect class="cls-6" x="97.66" y="172.77" width="42.58" height="11.46"/>
        <rect class="cls-6" x="109.33" y="146.02" width="74.25" height="7"/>
        <rect class="cls-6" x="161.16" y="168.9" width="87.67" height="15.34"/>
    </g>
    <g id="People">
        <circle class="cls-7" cx="6.89" cy="157.16" r="2.15"/>
        <circle class="cls-7" cx="15.14" cy="162.06" r="2.15"/>
        <circle class="cls-7" cx="12.56" cy="157.16" r="2.15"/>
        <circle class="cls-7" cx="9.81" cy="169.14" r="2.15"/>
        <circle class="cls-7" cx="4.74" cy="172.77" r="2.15"/>
        <circle class="cls-7" cx="15.33" cy="168.56" r="2.15"/>
        <circle class="cls-7" cx="8.56" cy="150.72" r="2.15"/>
        <circle class="cls-7" cx="3.7" cy="148.57" r="2.15"/>
        <circle class="cls-7" cx="22.56" cy="149.47" r="2.15"/>
        <circle class="cls-7" cx="28.08" cy="151.62" r="2.15"/>
        <circle class="cls-7" cx="27.41" cy="162.53" r="2.15"/>
        <circle class="cls-7" cx="16.56" cy="152.87" r="2.15"/>
        <circle class="cls-7" cx="13.56" cy="148.17" r="2.15"/>
        <circle class="cls-7" cx="22.56" cy="158.23" r="2.15"/>
        <circle class="cls-7" cx="20.85" cy="166.99" r="2.15"/>
        <circle class="cls-7" cx="25.93" cy="171.28" r="2.15"/>
        <circle class="cls-7" cx="28.08" cy="177.32" r="2.15"/>
        <circle class="cls-7" cx="18.7" cy="174.12" r="2.15"/>
        <circle class="cls-7" cx="16.85" cy="180.65" r="2.15"/>
        <circle class="cls-7" cx="23" cy="180.65" r="2.15"/>
        <circle class="cls-7" cx="6.89" cy="163.65" r="2.15"/>
        <circle class="cls-7" cx="12.27" cy="177.32" r="2.15"/>
        <circle class="cls-7" cx="5.85" cy="180.65" r="2.15"/>
    </g>
    <g id="Police">
        <line class="cls-8" x1="309.63" y1="147.19" x2="307.4" y2="149.25"/>
        <line class="cls-8" x1="307.48" y1="147.1" x2="309.55" y2="149.33"/>
        <line class="cls-8" x1="309.53" y1="149.98" x2="307.3" y2="152.05"/>
        <line class="cls-8" x1="307.38" y1="149.9" x2="309.44" y2="152.13"/>
        <line class="cls-8" x1="309.42" y1="152.79" x2="307.19" y2="154.86"/>
        <line class="cls-8" x1="307.27" y1="152.71" x2="309.34" y2="154.94"/>
        <line class="cls-8" x1="309.31" y1="155.6" x2="307.08" y2="157.66"/>
        <line class="cls-8" x1="307.17" y1="155.51" x2="309.23" y2="157.74"/>
        <line class="cls-8" x1="309.21" y1="158.39" x2="306.98" y2="160.46"/>
        <line class="cls-8" x1="307.06" y1="158.31" x2="309.13" y2="160.54"/>
        <line class="cls-8" x1="309.1" y1="161.26" x2="306.87" y2="163.33"/>
        <line class="cls-8" x1="306.95" y1="161.18" x2="309.02" y2="163.41"/>
        <line class="cls-8" x1="308.99" y1="164.11" x2="306.76" y2="166.17"/>
        <line class="cls-8" x1="306.84" y1="164.02" x2="308.91" y2="166.25"/>
        <line class="cls-8" x1="308.89" y1="166.9" x2="306.66" y2="168.97"/>
        <line class="cls-8" x1="306.74" y1="166.82" x2="308.81" y2="169.05"/>
        <line class="cls-8" x1="308.78" y1="169.71" x2="306.55" y2="171.78"/>
        <line class="cls-8" x1="306.63" y1="169.63" x2="308.7" y2="171.86"/>
        <line class="cls-8" x1="308.68" y1="172.52" x2="306.45" y2="174.58"/>
        <line class="cls-8" x1="306.53" y1="172.43" x2="308.59" y2="174.66"/>
        <line class="cls-8" x1="308.57" y1="175.31" x2="306.34" y2="177.38"/>
        <line class="cls-8" x1="306.42" y1="175.23" x2="308.49" y2="177.46"/>
        <line class="cls-8" x1="308.46" y1="178.18" x2="306.23" y2="180.25"/>
        <line class="cls-8" x1="306.31" y1="178.1" x2="308.38" y2="180.33"/>
        <line class="cls-8" x1="308.19" y1="181.05" x2="305.96" y2="183.12"/>
        <line class="cls-8" x1="306.04" y1="180.97" x2="308.11" y2="183.2"/>
    </g>
</svg>