<svg xmlns="http://www.w3.org/2000/svg" viewBox="0 0 310.03 312.19"><defs><style>.cls-1{fill:#fff;}.cls-2{stroke:#fff;stroke-width:2px;}.cls-2,.cls-3,.cls-6{stroke-miterlimit:10;}.cls-3,.cls-6,.cls-8{fill:none;}.cls-3{stroke:#575756;}.cls-3,.cls-6{stroke-width:0.5px;stroke-dasharray:2 2;}.cls-4{fill:#575756;}.cls-18,.cls-20,.cls-21,.cls-22,.cls-5{fill:#dedc00;}.cls-6{stroke:#3c3c3b;}.cls-7{fill:#3c3c3b;}.cls-10,.cls-11,.cls-12,.cls-13,.cls-9{fill:#ea5b0c;}.cls-14,.cls-18,.cls-9{opacity:0.2;}.cls-10,.cls-17,.cls-20{opacity:0.4;}.cls-11,.cls-15,.cls-22{opacity:0.6;}.cls-12,.cls-16,.cls-21{opacity:0.8;}.cls-14,.cls-15,.cls-16,.cls-17{fill:#ffde00;}.cls-19{fill:#ffde07;}</style></defs><title>protestdivision</title><g id="Layer_4" data-name="Layer 4"><circle class="cls-1" cx="155.01" cy="155.01" r="155.01"/></g><g id="M"><path d="M372.67,591.92l82.07,29.32,38.53-87.92A154.72,154.72,0,0,0,372.67,591.92Z" transform="translate(-339.57 -532.14)"/><path d="M518.1,535.17l-41.19,94L649,690.66c0-.78,0-1.55,0-2.33A155,155,0,0,0,518.1,535.17Z" transform="translate(-339.57 -532.14)"/><path class="cls-2" d="M424,769V746.5H350.34a155.19,155.19,0,0,0,32.53,49.83H424Z" transform="translate(-339.57 -532.14)"/><polygon class="cls-2" points="132.93 264.19 177.1 264.19 177.1 186.01 132.93 186.01 132.93 236.86 132.93 264.19"/><path class="cls-2" d="M424,718.16H341.92a153.86,153.86,0,0,0,8.42,28.34H424Z" transform="translate(-339.57 -532.14)"/><polygon class="cls-2" points="84.43 236.86 132.93 236.86 132.93 186.01 84.43 186.01 84.43 214.36 84.43 236.86"/><polygon class="cls-2" points="191.1 264.19 234.93 264.19 234.93 232.86 234.93 207.36 191.1 207.36 191.1 264.19"/><rect class="cls-2" x="191.1" y="186.01" width="43.83" height="21.34"/><rect class="cls-2" x="84.43" y="236.86" width="48.5" height="27.33"/><path class="cls-2" d="M472.5,796.33H382.87a154.53,154.53,0,0,0,111.18,47,156.23,156.23,0,0,0,22.62-1.65V796.33Z" transform="translate(-339.57 -532.14)"/><path class="cls-2" d="M574.5,796.33v0H530.67V839a155.28,155.28,0,0,0,98.12-74H574.5Z" transform="translate(-339.57 -532.14)"/><path class="cls-2" d="M574.5,718.16V765h54.29a154,154,0,0,0,17.39-46.84Z" transform="translate(-339.57 -532.14)"/></g><g id="lines"><line class="cls-3" x1="106.11" y1="135.77" x2="152.91" y2="32.27"/><path class="cls-4" d="M493.72,561.67a15.11,15.11,0,0,0,.41,4.87l-1.81-1.76-2.52-.2A15.1,15.1,0,0,0,493.72,561.67Z" transform="translate(-339.57 -532.14)"/><line class="cls-5" x1="32.78" y1="90.12" x2="282.45" y2="166.01"/><line class="cls-6" x1="32.78" y1="90.12" x2="279.57" y2="165.14"/><path class="cls-7" d="M622,698.16a15.11,15.11,0,0,0-4.78,1l1.51-2-.13-2.52A15.1,15.1,0,0,0,622,698.16Z" transform="translate(-339.57 -532.14)"/><line class="cls-3" x1="16.83" y1="157.51" x2="181.33" y2="167.82"/><path class="cls-4" d="M523.91,700.16a15.11,15.11,0,0,0-4.41,2.11l1-2.32-.71-2.43A15.1,15.1,0,0,0,523.91,700.16Z" transform="translate(-339.57 -532.14)"/></g><g id="people"><path class="cls-8" d="M493.72,561.67" transform="translate(-339.57 -532.14)"/><line class="cls-3" x1="21.83" y1="121.46" x2="103.14" y2="135.26"/><path class="cls-4" d="M445.68,667.91a15.11,15.11,0,0,0-4.61,1.63l1.25-2.2-.45-2.49A15.1,15.1,0,0,0,445.68,667.91Z" transform="translate(-339.57 -532.14)"/><path class="cls-5" d="M622,698.16" transform="translate(-339.57 -532.14)"/><path class="cls-5" d="M372.35,622.26" transform="translate(-339.57 -532.14)"/><circle class="cls-9" cx="25.85" cy="88.01" r="7.24"/><circle class="cls-10" cx="72.35" cy="102.5" r="7.24"/><circle class="cls-11" cx="155.01" cy="128.01" r="7.24"/><circle class="cls-12" cx="213.01" cy="146.01" r="7.24"/><circle class="cls-13" cx="289.22" cy="168.01" r="7.24"/><circle class="cls-14" cx="15.34" cy="120.36" r="7.24"/><circle class="cls-15" cx="105.67" cy="135.77" r="7.24"/><circle class="cls-16" cx="131.09" cy="80.77" r="7.24"/><circle class="cls-17" cx="61.76" cy="128.52" r="7.24"/><circle class="cls-18" cx="9.59" cy="157.51" r="7.24"/><circle class="cls-19" cx="157.27" cy="22.28" r="7.24"/><line class="cls-3" x1="184.34" y1="168.01" x2="184.34" y2="261.17"/><path class="cls-4" d="M523.91,796.33a15.11,15.11,0,0,0-2.38-4.27l2.38.86,2.38-.86A15.1,15.1,0,0,0,523.91,796.33Z" transform="translate(-339.57 -532.14)"/><path class="cls-8" d="M356.4,689.66" transform="translate(-339.57 -532.14)"/><circle class="cls-5" cx="184.34" cy="271.43" r="7.24"/><circle class="cls-20" cx="98.43" cy="162.77" r="7.24"/><circle class="cls-21" cx="184.34" cy="216.12" r="7.24"/><circle class="cls-22" cx="184.34" cy="168.01" r="7.24"/></g></svg>