<svg xmlns="http://www.w3.org/2000/svg" viewBox="0 0 335 316.68"><defs><style>.cls-1{fill:#be1622;}.cls-2,.cls-3,.cls-4,.cls-5,.cls-7,.cls-8,.cls-9{fill:none;stroke-miterlimit:10;}.cls-2,.cls-3,.cls-4,.cls-5{stroke:#fff;}.cls-2{stroke-width:6px;}.cls-3{stroke-width:40px;}.cls-4{stroke-width:20px;}.cls-5{stroke-width:3px;}.cls-6{fill:#ffde00;}.cls-7,.cls-8,.cls-9{stroke:#be1622;stroke-width:2px;}.cls-8{stroke-dasharray:1.99 1.99;}.cls-9{stroke-dasharray:1.97 1.97;}</style></defs><title>Spacedivison</title><g id="divided_MAp" data-name="divided MAp"><path d="M1059.24,478.75V460.12a154.27,154.27,0,0,0-82.32-23.65c-3.25,0-6.48.11-9.68.31v42Z" transform="translate(-810.93 -432.01)"/><path d="M1059.24,530.52v71.1h72.35c.22-3.35.34-6.73.34-10.14a154.9,154.9,0,0,0-72.69-131.36v70.4Z" transform="translate(-810.93 -432.01)"/><polygon points="156.31 98.51 109.64 98.51 109.64 169.61 156.78 169.61 156.64 168.97 156.78 169.61 189.31 169.61 189.31 98.51 156.31 98.51"/><rect class="cls-1" x="189.31" y="98.51" width="59" height="71.1"/><path d="M920.57,530.52h46.67V436.78A154.25,154.25,0,0,0,920.57,447v83.49Z" transform="translate(-810.93 -432.01)"/><polygon points="248.31 98.51 248.31 46.74 156.31 46.74 156.31 98.51 189.31 98.51 248.31 98.51"/><path d="M920.57,601.62H915.9V670h0v64a154.5,154.5,0,0,0,61,12.48,156.23,156.23,0,0,0,23.15-1.72L967.71,601.62Z" transform="translate(-810.93 -432.01)"/><path d="M843.26,670a155.61,155.61,0,0,0,72.64,64V670Z" transform="translate(-810.93 -432.01)"/><path d="M1131.59,601.62h-23.37l-114.6,114.6,114.6-114.6H967.71l32.36,143.15A155.06,155.06,0,0,0,1131.59,601.62Z" transform="translate(-810.93 -432.01)"/><path d="M915.9,600.65v1h4.67V496H854.78a154.34,154.34,0,0,0-32.87,95.46c0,3.41.12,6.79.34,10.14H915.9Z" transform="translate(-810.93 -432.01)"/><path d="M920.57,447a155.43,155.43,0,0,0-65.79,49h65.79Z" transform="translate(-810.93 -432.01)"/><path d="M915.9,601.62H822.24a154.08,154.08,0,0,0,21,68.4H915.9Z" transform="translate(-810.93 -432.01)"/></g><g id="Pattern"><line class="cls-2" x1="188.79" y1="95.83" x2="188.79" y2="150.62"/><line class="cls-3" y1="169.6" x2="335" y2="169.6"/><line class="cls-4" x1="109.13" y1="4.44" x2="109.13" y2="150.62"/><line class="cls-4" x1="247.79" y1="17.65" x2="247.79" y2="150.62"/><line class="cls-5" x1="278.79" y1="187.58" x2="188.71" y2="277.66"/><line class="cls-2" x1="104.46" y1="188.58" x2="104.46" y2="303"/><line class="cls-2" x1="155.79" x2="155.79" y2="98.5"/><line class="cls-4" x1="159.34" y1="183.18" x2="189.02" y2="314.47"/><line class="cls-2" x1="117.79" y1="98.5" x2="238.79" y2="98.5"/><line class="cls-5" x1="157.46" y1="46.73" x2="238.79" y2="46.73"/><line class="cls-5" x1="18.96" y1="64" x2="100.29" y2="64"/><line class="cls-5" x1="20.88" y1="238" x2="102.21" y2="238"/></g><g id="Yellow_Zone" data-name="Yellow Zone"><rect class="cls-6" x="101.43" y="189.86" width="5.83" height="23.96"/><polygon class="cls-6" points="150.68 189.86 171.12 189.86 176.93 215.74 156.49 215.74 150.68 189.86"/><polygon class="cls-6" points="274.41 189.86 253.76 210.44 256.1 212.37 278.63 189.86 274.41 189.86"/><path class="cls-6" d="M930.11,528.92" transform="translate(-810.93 -432.01)"/><path class="cls-6" d="M1131.59,581.62h-62.87V489.5h-20v37.94h16V605.1l-142.58-.17v-77.6l8,.17v-38h-20v92.12H822.24c-.21,3.33-.33,6.69-.33,10.07a155.74,155.74,0,0,0,2.95,30.18H1129a155.74,155.74,0,0,0,2.95-30.18C1131.93,588.31,1131.81,585,1131.59,581.62Z" transform="translate(-810.93 -432.01)"/></g><g id="REd_Zone" data-name="REd Zone"><polyline class="cls-7" points="250.18 168.6 250.18 169.6 249.18 169.6"/><line class="cls-8" x1="247.19" y1="169.6" x2="116.68" y2="169.6"/><polyline class="cls-7" points="115.68 169.6 114.68 169.6 114.68 168.6"/><line class="cls-9" x1="114.68" y1="166.62" x2="114.68" y2="100.49"/><polyline class="cls-7" points="114.68 99.5 114.68 98.5 115.68 98.5"/><line class="cls-8" x1="117.67" y1="98.5" x2="248.19" y2="98.5"/><polyline class="cls-7" points="249.18 98.5 250.18 98.5 250.18 99.5"/><line class="cls-9" x1="250.18" y1="101.47" x2="250.18" y2="167.61"/></g></svg>