<svg xmlns="http://www.w3.org/2000/svg" viewBox="0 0 335 316.68">
    <defs>
        <style>.cls-1{fill:#be1622;}.cls-2,.cls-3,.cls-4,.cls-5,.cls-7,.cls-8,.cls-9{fill:none;stroke-miterlimit:10;}.cls-2,.cls-3,.cls-4,.cls-5{stroke:#fff;}.cls-2{stroke-width:6px;}.cls-3{stroke-width:40px;}.cls-4{stroke-width:20px;}.cls-5{stroke-width:3px;}.cls-6{fill:#ffde00;}.cls-7,.cls-8,.cls-9{stroke:#be1622;stroke-width:2px;}.cls-8{stroke-dasharray:1.99 1.99;}.cls-9{stroke-dasharray:1.97 1.97;}.cls-10{fill:#b5bf97;}.cls-11,.cls-12,.cls-13,.cls-14,.cls-15{stroke:#95c11f;}.cls-12{stroke-dasharray:0.99 0.99;}.cls-13{stroke-dasharray:1.01 1.01;}.cls-14{stroke-dasharray:1 1;}.cls-15{stroke-dasharray:0.98 0.98;}.cls-16{fill:#fff};</style>
    </defs>
    <title>Spacedivison</title>
    <g id="divided_MAp" data-name="divided MAp">
        <path d="M1059.24,478.75V460.12a154.27,154.27,0,0,0-82.32-23.65c-3.25,0-6.48.11-9.68.31v42Z" transform="translate(-810.93 -432.01)"/>
        <path d="M1059.24,530.52v71.1h72.35c.22-3.35.34-6.73.34-10.14a154.9,154.9,0,0,0-72.69-131.36v70.4Z" transform="translate(-810.93 -432.01)"/>
        <polygon points="156.31 98.51 109.64 98.51 109.64 169.61 156.78 169.61 156.64 168.97 156.78 169.61 189.31 169.61 189.31 98.51 156.31 98.51"/>
        <rect class="cls-1" x="189.31" y="98.51" width="59" height="71.1"/>
        <path d="M920.57,530.52h46.67V436.78A154.25,154.25,0,0,0,920.57,447v83.49Z" transform="translate(-810.93 -432.01)"/>
        <polygon points="248.31 98.51 248.31 46.74 156.31 46.74 156.31 98.51 189.31 98.51 248.31 98.51"/>
        <path d="M920.57,601.62H915.9V670h0v64a154.5,154.5,0,0,0,61,12.48,156.23,156.23,0,0,0,23.15-1.72L967.71,601.62Z" transform="translate(-810.93 -432.01)"/>
        <path d="M843.26,670a155.61,155.61,0,0,0,72.64,64V670Z" transform="translate(-810.93 -432.01)"/>
        <path d="M1131.59,601.62h-23.37l-114.6,114.6,114.6-114.6H967.71l32.36,143.15A155.06,155.06,0,0,0,1131.59,601.62Z" transform="translate(-810.93 -432.01)"/>
        <path d="M915.9,600.65v1h4.67V496H854.78a154.34,154.34,0,0,0-32.87,95.46c0,3.41.12,6.79.34,10.14H915.9Z" transform="translate(-810.93 -432.01)"/>
        <path d="M920.57,447a155.43,155.43,0,0,0-65.79,49h65.79Z" transform="translate(-810.93 -432.01)"/>
        <path d="M915.9,601.62H822.24a154.08,154.08,0,0,0,21,68.4H915.9Z" transform="translate(-810.93 -432.01)"/>
    </g>
    <g id="Pattern">
        <line class="cls-2" x1="188.79" y1="95.83" x2="188.79" y2="150.62"/>
        <line class="cls-3" x1="10" y1="169.6" x2="321" y2="169.6"/>
        <line class="cls-4" x1="109.13" y1="11" x2="109.13" y2="150.62"/>
        <line class="cls-4" x1="247.79" y1="23" x2="247.79" y2="150.62"/>
        <line class="cls-5" x1="278.79" y1="187.58" x2="188.71" y2="277.66"/>
        <line class="cls-2" x1="104.46" y1="188.58" x2="104.46" y2="303"/>
        <line class="cls-2" x1="155.79" y1="4" x2="155.79" y2="98.5"/>
        <line class="cls-4" x1="159.34" y1="183.18" x2="189.02" y2="314.47"/>
        <line class="cls-2" x1="117.79" y1="98.5" x2="238.79" y2="98.5"/>
        <line class="cls-5" x1="157.46" y1="46.73" x2="238.79" y2="46.73"/>
        <line class="cls-5" x1="42" y1="64" x2="100.29" y2="64"/>
        <line class="cls-5" x1="30.88" y1="238" x2="102.21" y2="238"/>
    </g>
    
    <g id="Yellow_Zone" data-name="Yellow Zone">
        <rect class="cls-6" x="101.43" y="189.86" width="5.83" height="23.96"/>
        <polygon class="cls-6" points="150.68 189.86 171.12 189.86 176.93 215.74 156.49 215.74 150.68 189.86"/>
        <polygon class="cls-6" points="274.41 189.86 253.76 210.44 256.1 212.37 278.63 189.86 274.41 189.86"/>
        <path class="cls-6" d="M930.11,528.92" transform="translate(-810.93 -432.01)"/>
        <path class="cls-6" d="M1131.59,581.62h-62.87V489.5h-20v37.94h16V605.1l-142.58-.17v-77.6l8,.17v-38h-20v92.12H822.24c-.21,3.33-.33,6.69-.33,10.07a155.74,155.74,0,0,0,2.95,30.18H1129a155.74,155.74,0,0,0,2.95-30.18C1131.93,588.31,1131.81,585,1131.59,581.62Z" transform="translate(-810.93 -432.01)"/>
    </g>
    
    <g id="REd_Zone" data-name="REd Zone">
        <polyline class="cls-7" points="250.18 168.6 250.18 169.6 249.18 169.6"/>
        <line class="cls-8" x1="247.19" y1="169.6" x2="116.68" y2="169.6"/>
        <polyline class="cls-7" points="115.68 169.6 114.68 169.6 114.68 168.6"/>
        <line class="cls-9" x1="114.68" y1="166.62" x2="114.68" y2="100.49"/>
        <polyline class="cls-7" points="114.68 99.5 114.68 98.5 115.68 98.5"/>
        <line class="cls-8" x1="117.67" y1="98.5" x2="248.19" y2="98.5"/>
        <polyline class="cls-7" points="249.18 98.5 250.18 98.5 250.18 99.5"/>
        <line class="cls-9" x1="250.18" y1="101.47" x2="250.18" y2="167.61"/>
    </g>
    
    <g id="free_speech" data-name="free speech">
        <polygon class="cls-10" points="107.77 256.32 165.19 256.32 171.49 283.9 107.77 283.9 107.77 256.32"/>
        <polyline class="cls-11" points="107.77 256.82 107.77 256.32 108.27 256.32"/>
        <line class="cls-12" x1="109.25" y1="256.32" x2="164.19" y2="256.32"/>
        <polyline class="cls-11" points="164.69 256.32 165.19 256.32 165.3 256.81"/>
        <line class="cls-13" x1="165.52" y1="257.79" x2="171.27" y2="282.92"/>
        <polyline class="cls-11" points="171.38 283.42 171.49 283.9 170.99 283.9"/>
        <line class="cls-14" x1="170" y1="283.9" x2="108.76" y2="283.9"/>
        <polyline class="cls-11" points="108.27 283.9 107.77 283.9 107.77 283.4"/>
        <line class="cls-15" x1="107.76" y1="282.42" x2="107.76" y2="257.31"/>
        <path class="cls-16" d="M949.17,707.32a.13.13,0,0,0,.14.07h.49l.2,0c.08,0,.1,0,.12.11v0a4.61,4.61,0,0,0,.1.69,12.45,12.45,0,0,1,.17,1.36,1.64,1.64,0,0,1,0,.19.89.89,0,0,0,0,.35.82.82,0,0,1,0,.2,7.84,7.84,0,0,1,0,.92.12.12,0,0,0,.05.12.2.2,0,0,0,.07-.18q0-.27,0-.55c0-.18,0-.37,0-.55q0-.93,0-1.85a3,3,0,0,1,0-.3.33.33,0,0,1,.24-.28.52.52,0,0,0,.22-.1l.17-.13c.05,0,.05-.08,0-.12l0,0a1,1,0,0,1-.5-.67c0-.05,0-.1-.06-.16l-.14-.34c-.15-.4-.31-.8-.46-1.2a1.48,1.48,0,0,0-.26-.44l-1.31-1.61-.11-.15a.26.26,0,0,1,0-.09c0-.05,0-.08.06-.08h.13c.6.11,1.2.23,1.79.39l.52.14a1.28,1.28,0,0,1,.59.36c.25.25.51.48.77.72l.09.06a.45.45,0,0,1,.18.18l0,.06a.08.08,0,0,0,.13,0l.09-.09c.48.28.95.59,1.43.89l0,.2c-.07.3-.14.6-.22.9a.92.92,0,0,1-.3.49,1.36,1.36,0,0,0-.31.4,2.11,2.11,0,0,1-.4.56l-.07.08a.48.48,0,0,0-.12.29c-.05.63-.11,1.26-.1,1.9,0,.28,0,.57,0,.85s0,.67,0,1a3.81,3.81,0,0,1-.06.51c0,.13,0,.26,0,.39s0,0,0,0,0,.13-.14.13h-1l-5.1,0c-.12,0-.14,0-.17-.13a1.15,1.15,0,0,1,0-.2,5.24,5.24,0,0,1,0-1c.07-.49.13-1,.21-1.48s.17-1,.26-1.56l.16-.92a.23.23,0,0,0,0-.16c-.06-.1-.12-.2-.18-.29-.26-.36-.53-.71-.78-1.07s-.41-.61-.6-.93a17.07,17.07,0,0,0-1-1.52l-1-1.32a5.12,5.12,0,0,1-.27-.44.51.51,0,0,1,0-.47,8.8,8.8,0,0,1,.4-.86,14.35,14.35,0,0,1,1-1.69,11,11,0,0,1,.78-1.07l.25-.26a1.14,1.14,0,0,1,.39-.25.31.31,0,0,1,.2,0,1.25,1.25,0,0,1,.46.19l.18.11,0-.09.07,0q1,.37,1.95.8l1.2.56.24.14a.15.15,0,0,1,.08.14,2.25,2.25,0,0,1-.17,1,.52.52,0,0,1-.29.29,6.09,6.09,0,0,1-1.21.38,2.33,2.33,0,0,1-.54,0,.21.21,0,0,1-.15-.07,10.12,10.12,0,0,0-.83-.81l-.25-.19a.62.62,0,0,0,0,.13.38.38,0,0,0,0,.12.6.6,0,0,1,0,.37,1.46,1.46,0,0,1-.42.75.3.3,0,0,1-.16.08l-.16,0a.13.13,0,0,0,.11.11l.25.06a1.12,1.12,0,0,1,.47.17,2,2,0,0,0,.5.21l.4.14a.43.43,0,0,1,.19.15c.14.18.28.35.41.54.77,1.06,1.51,2.15,2.2,3.26l.18.31a.14.14,0,0,1,0,.18l-.17.18a3.16,3.16,0,0,1-.59.42A1.42,1.42,0,0,1,949.17,707.32Z" transform="translate(-810.93 -432.01)"/>
        <path class="cls-16" d="M940.37,697.73l-.29-.21a3,3,0,0,1-1.13-2,3.09,3.09,0,0,1,2.43-3.45,3,3,0,0,1,2.46.52c.22.16.19.1.11.34a5.73,5.73,0,0,1-.51,1,17.89,17.89,0,0,1-2.37,3.14c-.19.2-.41.39-.61.58Z" transform="translate(-810.93 -432.01)"/>
        <path class="cls-16" d="M953.84,699.68a.61.61,0,0,1-.15.4L953,701c-.46.58-.92,1.16-1.38,1.75a.62.62,0,0,1-.84.14,1.9,1.9,0,0,0-.26-.13l-.72-.35a.52.52,0,0,1-.3-.42.58.58,0,0,1,.11-.44l2.21-3.16a.59.59,0,0,1,.4-.26.55.55,0,0,1,.5.15l.83.82.14.14A.59.59,0,0,1,953.84,699.68Z" transform="translate(-810.93 -432.01)"/>
        <path class="cls-16" d="M940.81,698l.08-.08a22.29,22.29,0,0,0,2.09-2.45,10,10,0,0,0,1-1.63,4.29,4.29,0,0,0,.28-.74l0-.07.05.05a3.06,3.06,0,0,1,.76,1.6c0,.06,0,.12,0,.18a.32.32,0,0,1,0,.21,12.44,12.44,0,0,1-1.2,1.88,12.72,12.72,0,0,1-1,1.13.26.26,0,0,1-.13.08,3.09,3.09,0,0,1-1.89-.13Z" transform="translate(-810.93 -432.01)"/>
        <path class="cls-16" d="M955.51,701.32a.4.4,0,0,1-.13.29l-.65.63-1.92,1.85a.46.46,0,0,1-.28.15.33.33,0,0,1-.29-.1l-.64-.66a.35.35,0,0,1,0-.49l.44-.53,1.94-2.33a.24.24,0,0,1,.3-.09.71.71,0,0,1,.29.18l.84.86A.3.3,0,0,1,955.51,701.32Z" transform="translate(-810.93 -432.01)"/>
        <path class="cls-16" d="M952.07,697.42a.56.56,0,0,1-.08.31c-.29.48-.57,1-.87,1.44a3.21,3.21,0,0,1-.29.35l-.24.29-.35.45a1,1,0,0,1-.18.16c-.06,0-.09,0-.12,0a.57.57,0,0,1,0-.34c0-.19.08-.38.12-.58s0-.13,0-.19a.21.21,0,0,0-.08-.21,1.84,1.84,0,0,0-.25-.16l-.29-.13-.62-.26-.06,0a.2.2,0,0,1-.11-.31l.07-.13.91-1.49.11-.18a.59.59,0,0,1,.83-.21l1,.61.22.13A.58.58,0,0,1,952.07,697.42Z" transform="translate(-810.93 -432.01)"/>
        <path class="cls-16" d="M947.92,694.94a.62.62,0,0,1,.32.09l1.09.7a1.16,1.16,0,0,1,.2.17.27.27,0,0,1,.05.33,1.48,1.48,0,0,1-.09.17l-1,1.52a.92.92,0,0,1-.14.17.4.4,0,0,1-.47.08l-1.25-.55a3.46,3.46,0,0,1-.41-.25l-.07-.07a.14.14,0,0,1,0-.17,1,1,0,0,1,.12-.19,4.25,4.25,0,0,0,.44-.6l.71-1.11A.6.6,0,0,1,947.92,694.94Z" transform="translate(-810.93 -432.01)"/>
        <path class="cls-16" d="M952.84,704.3a6.65,6.65,0,0,0,.61-.6l1-.92.31-.29.44.35,1.25,1a.32.32,0,0,1,.12.34,1.81,1.81,0,0,1-.11.36,2.57,2.57,0,0,1-.77,1,1.51,1.51,0,0,1-.26.15.28.28,0,0,1-.3,0l-1.59-1-.58-.35Z" transform="translate(-810.93 -432.01)"/>
        <path class="cls-16" d="M945.38,695.12l1.25,1a2.59,2.59,0,0,1-.41.57l-.11.13a.5.5,0,0,0-.11.5l-.06,0a.69.69,0,0,0-.61,0,1.39,1.39,0,0,0-.51.42l-.76,1-.05.07-.9-.55A14.32,14.32,0,0,0,945.38,695.12Z" transform="translate(-810.93 -432.01)"/>
        <path class="cls-16" d="M949.72,700.78a.11.11,0,0,1,0,.14l-.16.19-.7.82-.15.19c-.08.1-.11.1-.22.06a5.09,5.09,0,0,1-.84-.46l-.58-.41a.28.28,0,0,1-.13-.21.23.23,0,0,1,.41-.15l.11.18a.28.28,0,0,0,.24.15,1.29,1.29,0,0,0,.45,0l1.5-.41Z" transform="translate(-810.93 -432.01)"/>
        <path class="cls-16" d="M955.77,705.72a2.38,2.38,0,0,0,.9-1.26c.15.1.3.2.44.31a.38.38,0,0,1,.07.51l-.17.24-.25.36a.41.41,0,0,1-.6.11l-.34-.23Z" transform="translate(-810.93 -432.01)"/>
    </g>
</svg>