<svg xmlns="http://www.w3.org/2000/svg" viewBox="0 0 335 316.68"><defs><style>.cls-1{fill:#1d1d1b;}.cls-2{fill:#be1622;}.cls-3,.cls-4,.cls-5,.cls-6{fill:none;stroke:#fff;stroke-miterlimit:10;}.cls-3{stroke-width:6px;}.cls-4{stroke-width:40px;}.cls-5{stroke-width:20px;}.cls-6{stroke-width:3px;}</style></defs><title>strategiciIncapacitation</title><g id="divided_MAp" data-name="divided MAp"><path d="M1059.24,818.75V800.12a154.27,154.27,0,0,0-82.32-23.65c-3.25,0-6.48.11-9.68.31v42Z" transform="translate(-810.93 -772.01)"/><path d="M1059.24,870.52v71.1h72.35c.22-3.35.34-6.73.34-10.14a154.9,154.9,0,0,0-72.69-131.36v70.4Z" transform="translate(-810.93 -772.01)"/><polygon points="156.31 98.51 109.64 98.51 109.64 169.61 156.78 169.61 156.64 168.97 156.78 169.61 189.31 169.61 189.31 98.51 156.31 98.51"/><path d="M920.57,870.52h46.67V776.78A154.25,154.25,0,0,0,920.57,787v83.49Z" transform="translate(-810.93 -772.01)"/><polygon points="248.31 98.51 248.31 46.74 156.31 46.74 156.31 98.51 189.31 98.51 248.31 98.51"/><path d="M920.57,941.62H915.9V1010h0v64a154.5,154.5,0,0,0,61,12.48,156.23,156.23,0,0,0,23.15-1.72L967.71,941.62Z" transform="translate(-810.93 -772.01)"/><path d="M843.26,1010a155.61,155.61,0,0,0,72.64,64v-64Z" transform="translate(-810.93 -772.01)"/><path d="M1131.59,941.62h-23.37l-114.6,114.6,114.6-114.6H967.71l32.36,143.15A155.06,155.06,0,0,0,1131.59,941.62Z" transform="translate(-810.93 -772.01)"/><path d="M915.9,940.66v1h4.67V836H854.78a154.34,154.34,0,0,0-32.87,95.46c0,3.41.12,6.79.34,10.14H915.9Z" transform="translate(-810.93 -772.01)"/><path d="M920.57,787a155.43,155.43,0,0,0-65.79,49h65.79Z" transform="translate(-810.93 -772.01)"/><path d="M915.9,941.62H822.24a154.08,154.08,0,0,0,21,68.4H915.9Z" transform="translate(-810.93 -772.01)"/><rect class="cls-1" x="189.31" y="98.51" width="59" height="71.1"/><polyline class="cls-2" points="280.13 149.61 257.74 149.61 257.74 126.03 280.13 126.03"/></g><g id="Pattern"><line class="cls-3" x1="188.79" y1="95.83" x2="188.79" y2="150.62"/><line class="cls-4" y1="169.6" x2="335" y2="169.6"/><line class="cls-5" x1="109.13" y1="4.44" x2="109.13" y2="150.62"/><line class="cls-5" x1="247.79" y1="17.65" x2="247.79" y2="150.62"/><line class="cls-6" x1="278.79" y1="187.58" x2="188.71" y2="277.66"/><line class="cls-3" x1="104.46" y1="188.58" x2="104.46" y2="303"/><line class="cls-3" x1="155.79" x2="155.79" y2="98.5"/><line class="cls-5" x1="159.34" y1="183.18" x2="189.02" y2="314.47"/><line class="cls-3" x1="117.79" y1="98.5" x2="238.79" y2="98.5"/><line class="cls-6" x1="157.46" y1="46.73" x2="238.79" y2="46.73"/><line class="cls-6" x1="18.96" y1="64" x2="100.29" y2="64"/><line class="cls-6" x1="20.88" y1="238" x2="102.21" y2="238"/></g><g id="main"><rect class="cls-2" x="191.99" y="101.41" width="22.63" height="23.58"/><rect class="cls-2" x="215.61" y="101.41" width="22.4" height="23.58"/><rect class="cls-2" x="191.99" y="126.03" width="22.63" height="23.58"/><rect class="cls-2" x="215.61" y="126.03" width="22.4" height="23.58"/></g><g id="divided"><rect class="cls-2" x="990.73" y="987.41" width="22.63" height="23.58" transform="translate(-1006.57 -526.51) rotate(-12.74)"/><line class="cls-2" x1="280.13" y1="126.03" x2="280.13" y2="149.61"/><rect class="cls-2" x="78.83" y="189.59" width="22.63" height="23.58"/><rect class="cls-2" x="76.74" y="39.04" width="22.4" height="23.58"/></g></svg>