<svg xmlns="http://www.w3.org/2000/svg" viewBox="0 0 310.03 310.03"><defs><style>.cls-1{fill:#1d1d1b;}.cls-2{isolation:isolate;}.cls-3{fill:#c5c5c5;}.cls-4{fill:#898989;}.cls-5{fill:#dcdcdc;}.cls-6{fill:#7f7f7f;}.cls-7{fill:#07a1a7;}.cls-8{fill:#50becf;}.cls-9{fill:#fff;}.cls-10{fill:#010101;}.cls-11{fill:#016d71;}.cls-12{fill:#fbc071;}.cls-13{fill:#fdd5a1;}.cls-14{fill:#007175;}</style></defs><title>surveillance</title><g id="Layer_5" data-name="Layer 5"><circle class="cls-1" cx="155.01" cy="155.01" r="155.01"/></g><g id="Layer_7" data-name="Layer 7"><g class="cls-2"><polygon class="cls-3" points="217.78 70.16 217.55 151.67 185.48 170.31 185.71 88.79 217.78 70.16"/><polygon class="cls-4" points="185.71 88.79 185.48 170.31 153.21 151.67 153.44 70.16 185.71 88.79"/><polygon class="cls-5" points="217.78 70.16 185.71 88.79 153.44 70.16 185.5 51.52 217.78 70.16"/></g><g class="cls-2"><polygon class="cls-3" points="249.85 154.98 249.8 171.28 217.74 189.91 217.78 173.61 249.85 154.98"/><polygon class="cls-4" points="217.78 173.61 217.74 189.91 185.46 171.28 185.5 154.97 217.78 173.61"/><polygon class="cls-5" points="249.85 154.98 217.78 173.61 185.5 154.97 217.57 136.34 249.85 154.98"/></g><g class="cls-2"><polygon class="cls-3" points="154.63 103.59 154.5 152.5 122.42 171.13 122.56 122.22 154.63 103.59"/><polygon class="cls-4" points="122.56 122.22 122.42 171.13 90.14 152.5 90.28 103.59 122.56 122.22"/><polygon class="cls-5" points="154.63 103.59 122.56 122.22 90.28 103.59 122.35 84.95 154.63 103.59"/></g><g class="cls-2"><polygon class="cls-6" points="184.89 170.34 184.89 171.16 153.31 152.93 153.32 152.11 184.89 170.34"/><polygon class="cls-6" points="153.32 152.11 153.31 152.93 121.95 171.16 121.95 170.34 153.32 152.11"/><polygon class="cls-4" points="153.52 188.57 153.52 189.39 121.95 171.16 121.95 170.34 153.52 188.57"/><polygon class="cls-3" points="184.89 170.34 184.89 171.16 153.52 189.39 153.52 188.57 184.89 170.34"/><polygon class="cls-5" points="184.89 170.34 153.52 188.57 121.95 170.34 153.32 152.11 184.89 170.34"/><polygon class="cls-6" points="153.53 189.39 153.52 190.2 120.53 171.16 120.54 170.34 153.53 189.39"/><polygon class="cls-6" points="186.3 170.34 186.3 171.16 153.52 190.2 153.53 189.39 186.3 170.34"/><path class="cls-6" d="M1007.83,899.56l33,19-32.78,19-33-19Zm.21,37.28,31.37-18.23-31.57-18.23-31.37,18.23L1008,936.84" transform="translate(-854.52 -748.27)"/></g><g class="cls-2"><polygon class="cls-6" points="217.11 188.84 217.1 189.66 185.53 171.43 185.53 170.62 217.11 188.84"/><polygon class="cls-6" points="185.53 170.62 185.53 171.43 154.17 189.66 154.17 188.84 185.53 170.62"/><polygon class="cls-4" points="185.75 207.07 185.74 207.88 154.17 189.66 154.17 188.84 185.75 207.07"/><polygon class="cls-3" points="217.11 188.84 217.1 189.66 185.74 207.88 185.75 207.07 217.11 188.84"/><path class="cls-6" d="M1040.05,918.07l33,19-32.77,19-33-19Zm.22,37.27,31.36-18.22-31.57-18.23-31.36,18.22,31.57,18.23" transform="translate(-854.52 -748.27)"/><polygon class="cls-5" points="217.11 188.84 185.75 207.07 154.17 188.84 185.53 170.62 217.11 188.84"/><polygon class="cls-6" points="185.75 207.89 185.75 208.7 152.76 189.66 152.76 188.84 185.75 207.89"/><polygon class="cls-6" points="218.52 188.84 218.52 189.66 185.75 208.7 185.75 207.89 218.52 188.84"/></g><g class="cls-2"><polygon class="cls-6" points="249.12 207.22 249.11 208.03 217.54 189.81 217.54 188.99 249.12 207.22"/><polygon class="cls-6" points="217.54 188.99 217.54 189.81 186.18 208.03 186.18 207.22 217.54 188.99"/><polygon class="cls-4" points="217.75 225.44 217.75 226.26 186.18 208.03 186.18 207.22 217.75 225.44"/><polygon class="cls-3" points="249.12 207.22 249.11 208.03 217.75 226.26 217.75 225.44 249.12 207.22"/><polygon class="cls-5" points="249.12 207.22 217.75 225.44 186.18 207.22 217.54 188.99 249.12 207.22"/><polygon class="cls-6" points="217.76 226.26 217.76 227.08 184.77 208.03 184.77 207.22 217.76 226.26"/><polygon class="cls-6" points="250.53 207.22 250.53 208.03 217.76 227.08 217.76 226.26 250.53 207.22"/><path class="cls-6" d="M1072.07,936.44l33,19-32.78,19-33-19Zm.21,37.27,31.36-18.22-31.57-18.23-31.36,18.22,31.57,18.23" transform="translate(-854.52 -748.27)"/></g><g class="cls-2"><polygon class="cls-6" points="153.85 188.84 153.85 189.66 122.28 171.43 122.28 170.62 153.85 188.84"/><polygon class="cls-6" points="122.28 170.62 122.28 171.43 90.92 189.66 90.92 188.84 122.28 170.62"/><polygon class="cls-4" points="122.49 207.07 122.49 207.88 90.92 189.66 90.92 188.84 122.49 207.07"/><polygon class="cls-3" points="153.85 188.84 153.85 189.66 122.49 207.88 122.49 207.07 153.85 188.84"/><polygon class="cls-5" points="153.85 188.84 122.49 207.07 90.92 188.84 122.28 170.62 153.85 188.84"/><polygon class="cls-6" points="122.5 207.89 122.5 208.7 89.51 189.66 89.51 188.84 122.5 207.89"/><polygon class="cls-6" points="155.27 188.84 155.26 189.66 122.5 208.7 122.5 207.89 155.27 188.84"/><path class="cls-6" d="M976.8,918.07l33,19-32.77,19-33-19Zm.22,37.27,31.36-18.22L976.8,918.88l-31.36,18.22L977,955.34" transform="translate(-854.52 -748.27)"/></g><g class="cls-2"><polygon class="cls-6" points="185.22 207.22 185.22 208.03 153.66 189.81 153.66 188.99 185.22 207.22"/><polygon class="cls-6" points="153.66 188.99 153.66 189.81 122.3 208.03 122.3 207.22 153.66 188.99"/><polygon class="cls-4" points="153.86 225.44 153.86 226.26 122.3 208.03 122.3 207.22 153.86 225.44"/><polygon class="cls-3" points="185.22 207.22 185.22 208.03 153.86 226.26 153.86 225.44 185.22 207.22"/><polygon class="cls-5" points="185.22 207.22 153.86 225.44 122.3 207.22 153.66 188.99 185.22 207.22"/><polygon class="cls-6" points="153.87 226.26 153.87 227.08 120.88 208.03 120.88 207.22 153.87 226.26"/><polygon class="cls-6" points="186.64 207.22 186.64 208.03 153.87 227.08 153.87 226.26 186.64 207.22"/><path class="cls-6" d="M1008.18,936.44l33,19-32.78,19-33-19Zm.21,37.27,31.36-18.22-31.57-18.22-31.36,18.22,31.57,18.22" transform="translate(-854.52 -748.27)"/></g><g class="cls-2"><polygon class="cls-6" points="153.85 226.09 153.85 226.91 122.28 208.68 122.28 207.87 153.85 226.09"/><polygon class="cls-6" points="122.28 207.87 122.28 208.68 90.92 226.91 90.92 226.09 122.28 207.87"/><polygon class="cls-4" points="122.49 244.32 122.49 245.13 90.92 226.91 90.92 226.09 122.49 244.32"/><polygon class="cls-3" points="153.85 226.09 153.85 226.91 122.49 245.13 122.49 244.32 153.85 226.09"/><polygon class="cls-5" points="153.85 226.09 122.49 244.32 90.92 226.09 122.28 207.87 153.85 226.09"/><polygon class="cls-6" points="122.5 245.14 122.5 245.95 89.51 226.91 89.51 226.09 122.5 245.14"/><polygon class="cls-6" points="155.27 226.09 155.26 226.91 122.5 245.95 122.5 245.14 155.27 226.09"/><path class="cls-6" d="M976.8,955.32l33,19-32.77,19-33-19Zm.22,37.27,31.36-18.22L976.8,956.13l-31.36,18.22L977,992.59" transform="translate(-854.52 -748.27)"/></g><g class="cls-2"><polygon class="cls-3" points="282 123.81 281.81 189.02 249.75 207.66 249.93 142.44 282 123.81"/><polygon class="cls-4" points="249.93 142.44 249.75 207.66 217.47 189.02 217.66 123.81 249.93 142.44"/><polygon class="cls-5" points="282 123.81 249.93 142.44 217.66 123.81 249.72 105.18 282 123.81"/></g><g class="cls-2"><polygon class="cls-3" points="122.64 89.28 122.41 170.8 90.34 189.44 90.57 107.92 122.64 89.28"/><polygon class="cls-4" points="90.57 107.92 90.34 189.44 58.07 170.8 58.3 89.29 90.57 107.92"/><polygon class="cls-5" points="122.64 89.28 90.57 107.92 58.3 89.29 90.37 70.65 122.64 89.28"/></g><g class="cls-2"><polygon class="cls-3" points="90.8 174.1 90.76 190.4 58.69 209.04 58.74 192.74 90.8 174.1"/><polygon class="cls-4" points="58.74 192.74 58.69 209.04 26.41 190.4 26.46 174.1 58.74 192.74"/><polygon class="cls-5" points="90.8 174.1 58.74 192.74 26.46 174.1 58.52 155.46 90.8 174.1"/></g><g class="cls-2"><polygon class="cls-3" points="122.58 175.74 122.48 208.34 90.41 226.98 90.5 194.37 122.58 175.74"/><polygon class="cls-4" points="90.5 194.37 90.41 226.98 58.13 208.34 58.23 175.74 90.5 194.37"/><polygon class="cls-5" points="122.58 175.74 90.5 194.37 58.23 175.74 90.3 157.1 122.58 175.74"/></g></g><g id="Layer_8" data-name="Layer 8"><path class="cls-7" d="M947.39,841.73a2.57,2.57,0,0,1,.18.3l.87,1.57,0,.06s-.06,0-.1,0H946l0,0a.22.22,0,0,1,0-.1q0-.72,0-1.44a.27.27,0,0,1,0-.1s.06,0,.09,0l1-.21.21,0Z" transform="translate(-854.52 -748.27)"/><path class="cls-8" d="M946,842q0,.78,0,1.56s0,.07,0,.1a.12.12,0,0,1-.1,0h-2.25a.12.12,0,0,1-.1,0l.48-.88.56-1,0-.06h.06c.41.06.82.16,1.23.24C946,842,946,842,946,842Z" transform="translate(-854.52 -748.27)"/><path class="cls-9" d="M946,842l-1.31-.26h2.64a4.88,4.88,0,0,1-.49.11Z" transform="translate(-854.52 -748.27)"/><path class="cls-10" d="M948.47,845.49l1.14,1.49-1.29.48a2.56,2.56,0,0,1,.34.31,2.46,2.46,0,0,1,.64,1.36c0,.09,0,.18,0,.26s0,.07-.06.07H946a.12.12,0,0,1,0-.09q0-.87,0-1.75a.24.24,0,0,1,0-.07s0,0,.08,0a2.62,2.62,0,0,0,.6-.09,2.42,2.42,0,0,0,1-.54,2.47,2.47,0,0,0,.76-1.29S948.43,845.51,948.47,845.49Z" transform="translate(-854.52 -748.27)"/><path class="cls-11" d="M946,847.53v1.93h-3.23c-.07,0-.09,0-.08-.09a2.46,2.46,0,0,1,1-1.87l.05,0-.66-.25-.57-.21s-.06,0,0-.06l1.11-1.44h0s0,0,0,.07a2.46,2.46,0,0,0,1.22,1.64,2.47,2.47,0,0,0,.91.29,1.58,1.58,0,0,1,.28,0Z" transform="translate(-854.52 -748.27)"/><path class="cls-12" d="M948.47,845.49a3.26,3.26,0,0,1-.2.6,2.47,2.47,0,0,1-1.44,1.3,2.5,2.5,0,0,1-.82.14h0a.13.13,0,0,1,0-.1q0-1.14,0-2.28a.24.24,0,0,1,0-.08s.06,0,.1,0c.22,0,.21,0,.21.2a.89.89,0,0,0,.18.59.8.8,0,0,0,1,.19.78.78,0,0,0,.39-.69c0-.24,0-.49,0-.73,0,0,0-.08,0-.11a4.33,4.33,0,0,1,.51,0l0,0c0,.26,0,.53,0,.79A1.17,1.17,0,0,0,948.47,845.49Z" transform="translate(-854.52 -748.27)"/><path class="cls-13" d="M946,845.05q0,1.24,0,2.48a2.49,2.49,0,0,1-2.35-1.68c0-.12-.06-.24-.1-.36a6.2,6.2,0,0,1,0-1,.06.06,0,0,1,.05,0c.16,0,.32,0,.48,0h0a.18.18,0,0,1,0,.11c0,.24,0,.47,0,.71a.81.81,0,0,0,1.6.16,1.92,1.92,0,0,0,0-.33c0-.09,0-.1.1-.1A.37.37,0,0,1,946,845.05Z" transform="translate(-854.52 -748.27)"/><path class="cls-7" d="M944.08,844.49h-.94a.42.42,0,1,1,0-.83H946a.12.12,0,0,1,0,.09q0,.32,0,.65a.14.14,0,0,1,0,.09.13.13,0,0,1-.09,0h-1.85Z" transform="translate(-854.52 -748.27)"/><path class="cls-11" d="M946,844.48v-.81h2.93a.41.41,0,0,1,.06.82h-.08c-.31,0-.61,0-.92,0-.62,0-1.24,0-1.86,0C946.09,844.5,946.05,844.51,946,844.48Z" transform="translate(-854.52 -748.27)"/><path class="cls-14" d="M946,844.48h3a1.4,1.4,0,0,1-.3,0H948a.15.15,0,0,1-.1,0h-3.66a.15.15,0,0,1-.1,0h0s.06,0,.1,0Z" transform="translate(-854.52 -748.27)"/><path class="cls-10" d="M944.08,844.5H948c0,.27,0,.55,0,.82a.83.83,0,0,1-1.64.16,1.62,1.62,0,0,1,0-.38s0-.07-.06-.06h-.44s0,0,0,.05a1.73,1.73,0,0,1,0,.43.83.83,0,0,1-1.63-.21Q944.08,844.91,944.08,844.5Z" transform="translate(-854.52 -748.27)"/><path class="cls-7" d="M1012.89,907.52a2.57,2.57,0,0,1,.18.3l.87,1.57,0,.06s-.06,0-.1,0h-2.34l0,0a.22.22,0,0,1,0-.1q0-.72,0-1.44a.27.27,0,0,1,0-.1s.06,0,.09,0l1-.21.21,0Z" transform="translate(-854.52 -748.27)"/><path class="cls-8" d="M1011.52,907.8q0,.78,0,1.56s0,.07,0,.1a.12.12,0,0,1-.1,0h-2.25a.12.12,0,0,1-.1,0l.48-.88.56-1,0-.06h.06c.41.06.82.16,1.23.24C1011.45,907.77,1011.49,907.77,1011.52,907.8Z" transform="translate(-854.52 -748.27)"/><path class="cls-9" d="M1011.52,907.8l-1.31-.26h2.64a4.88,4.88,0,0,1-.49.11Z" transform="translate(-854.52 -748.27)"/><path class="cls-10" d="M1014,911.28l1.14,1.49-1.29.48a2.56,2.56,0,0,1,.34.31,2.46,2.46,0,0,1,.64,1.36c0,.09,0,.18,0,.26s0,.07-.06.07h-3.26a.12.12,0,0,1,0-.09q0-.87,0-1.75a.24.24,0,0,1,0-.07s0,0,.08,0a2.62,2.62,0,0,0,.6-.09,2.42,2.42,0,0,0,1-.54,2.47,2.47,0,0,0,.76-1.29S1013.93,911.31,1014,911.28Z" transform="translate(-854.52 -748.27)"/><path class="cls-11" d="M1011.52,913.33v1.93h-3.23c-.07,0-.09,0-.08-.09a2.46,2.46,0,0,1,1-1.87l.05,0-.66-.25-.57-.21s-.06,0,0-.06l1.11-1.44h0s0,0,0,.07a2.46,2.46,0,0,0,1.22,1.64,2.47,2.47,0,0,0,.91.29,1.58,1.58,0,0,1,.28,0Z" transform="translate(-854.52 -748.27)"/><path class="cls-12" d="M1014,911.28a3.26,3.26,0,0,1-.2.6,2.47,2.47,0,0,1-1.44,1.3,2.5,2.5,0,0,1-.82.14h0a.13.13,0,0,1,0-.1q0-1.14,0-2.28a.24.24,0,0,1,0-.08s.06,0,.1,0c.22,0,.21,0,.21.2a.89.89,0,0,0,.18.59.8.8,0,0,0,1,.19.78.78,0,0,0,.39-.69c0-.24,0-.49,0-.73,0,0,0-.08,0-.11a4.33,4.33,0,0,1,.51,0l0,0c0,.26,0,.53,0,.79A1.17,1.17,0,0,0,1014,911.28Z" transform="translate(-854.52 -748.27)"/><path class="cls-13" d="M1011.52,910.85q0,1.24,0,2.48a2.49,2.49,0,0,1-2.35-1.68c0-.12-.06-.24-.1-.36a6.2,6.2,0,0,1,0-1,.06.06,0,0,1,.05,0c.16,0,.32,0,.48,0h0a.18.18,0,0,1,0,.11c0,.24,0,.47,0,.71a.81.81,0,0,0,1.6.16,1.92,1.92,0,0,0,0-.33c0-.09,0-.1.1-.1A.37.37,0,0,1,1011.52,910.85Z" transform="translate(-854.52 -748.27)"/><path class="cls-7" d="M1009.58,910.29h-.94a.42.42,0,1,1,0-.83h2.87a.12.12,0,0,1,0,.09q0,.32,0,.65a.14.14,0,0,1,0,.09.13.13,0,0,1-.09,0h-1.85Z" transform="translate(-854.52 -748.27)"/><path class="cls-11" d="M1011.52,910.27v-.81h2.93a.41.41,0,0,1,.06.82h-.08c-.31,0-.61,0-.92,0-.62,0-1.24,0-1.86,0C1011.59,910.3,1011.55,910.31,1011.52,910.27Z" transform="translate(-854.52 -748.27)"/><path class="cls-14" d="M1011.52,910.27h3a1.4,1.4,0,0,1-.3,0h-.74a.15.15,0,0,1-.1,0h-3.66a.15.15,0,0,1-.1,0h0s.06,0,.1,0Z" transform="translate(-854.52 -748.27)"/><path class="cls-10" d="M1009.58,910.29h3.87c0,.27,0,.55,0,.82a.83.83,0,0,1-1.64.16,1.62,1.62,0,0,1,0-.38s0-.07-.06-.06h-.44s0,0,0,.05a1.73,1.73,0,0,1,0,.43.83.83,0,0,1-1.63-.21Q1009.58,910.7,1009.58,910.29Z" transform="translate(-854.52 -748.27)"/><path class="cls-7" d="M1035.64,925.41a2.57,2.57,0,0,1,.18.3l.87,1.57,0,.06s-.06,0-.1,0h-2.34l0,0a.22.22,0,0,1,0-.1q0-.72,0-1.44a.27.27,0,0,1,0-.1s.06,0,.09,0l1-.21.21,0Z" transform="translate(-854.52 -748.27)"/><path class="cls-8" d="M1034.27,925.68q0,.78,0,1.56s0,.07,0,.1a.12.12,0,0,1-.1,0h-2.25a.12.12,0,0,1-.1,0l.48-.88.56-1,0-.06h.06c.41.06.82.16,1.23.24C1034.2,925.65,1034.24,925.65,1034.27,925.68Z" transform="translate(-854.52 -748.27)"/><path class="cls-9" d="M1034.27,925.68l-1.31-.26h2.64a4.88,4.88,0,0,1-.49.11Z" transform="translate(-854.52 -748.27)"/><path class="cls-10" d="M1036.72,929.16l1.14,1.49-1.29.48a2.56,2.56,0,0,1,.34.31,2.46,2.46,0,0,1,.64,1.36c0,.09,0,.18,0,.26s0,.07-.06.07h-3.26a.12.12,0,0,1,0-.09q0-.87,0-1.75a.24.24,0,0,1,0-.07s0,0,.08,0a2.62,2.62,0,0,0,.6-.09,2.42,2.42,0,0,0,1-.54,2.47,2.47,0,0,0,.76-1.29S1036.68,929.19,1036.72,929.16Z" transform="translate(-854.52 -748.27)"/><path class="cls-11" d="M1034.27,931.21v1.93H1031c-.07,0-.09,0-.08-.09a2.46,2.46,0,0,1,1-1.87l.05,0-.66-.25-.57-.21s-.06,0,0-.06l1.11-1.44h0s0,0,0,.07a2.46,2.46,0,0,0,1.22,1.64,2.47,2.47,0,0,0,.91.29,1.58,1.58,0,0,1,.28,0Z" transform="translate(-854.52 -748.27)"/><path class="cls-12" d="M1036.72,929.16a3.26,3.26,0,0,1-.2.6,2.47,2.47,0,0,1-1.44,1.3,2.5,2.5,0,0,1-.82.14h0a.13.13,0,0,1,0-.1q0-1.14,0-2.28a.24.24,0,0,1,0-.08s.06,0,.1,0c.22,0,.21,0,.21.2a.89.89,0,0,0,.18.59.8.8,0,0,0,1,.19.78.78,0,0,0,.39-.69c0-.24,0-.49,0-.73,0,0,0-.08,0-.11a4.33,4.33,0,0,1,.51,0l0,0c0,.26,0,.53,0,.79A1.17,1.17,0,0,0,1036.72,929.16Z" transform="translate(-854.52 -748.27)"/><path class="cls-13" d="M1034.27,928.73q0,1.24,0,2.48a2.49,2.49,0,0,1-2.35-1.68c0-.12-.06-.24-.1-.36a6.2,6.2,0,0,1,0-1,.06.06,0,0,1,.05,0c.16,0,.32,0,.48,0h0a.18.18,0,0,1,0,.11c0,.24,0,.47,0,.71a.81.81,0,0,0,1.6.16,1.92,1.92,0,0,0,0-.33c0-.09,0-.1.1-.1A.37.37,0,0,1,1034.27,928.73Z" transform="translate(-854.52 -748.27)"/><path class="cls-7" d="M1032.33,928.17h-.94a.42.42,0,1,1,0-.83h2.87a.12.12,0,0,1,0,.09q0,.32,0,.65a.14.14,0,0,1,0,.09.13.13,0,0,1-.09,0h-1.85Z" transform="translate(-854.52 -748.27)"/><path class="cls-11" d="M1034.27,928.16v-.81h2.93a.41.41,0,0,1,.06.82h-.08c-.31,0-.61,0-.92,0-.62,0-1.24,0-1.86,0C1034.34,928.18,1034.3,928.19,1034.27,928.16Z" transform="translate(-854.52 -748.27)"/><path class="cls-14" d="M1034.27,928.16h3a1.4,1.4,0,0,1-.3,0h-.74a.15.15,0,0,1-.1,0h-3.66a.15.15,0,0,1-.1,0h0s.06,0,.1,0Z" transform="translate(-854.52 -748.27)"/><path class="cls-10" d="M1032.33,928.17h3.87c0,.27,0,.55,0,.82a.83.83,0,0,1-1.64.16,1.62,1.62,0,0,1,0-.38s0-.07-.06-.06H1034s0,0,0,.05a1.73,1.73,0,0,1,0,.43.83.83,0,0,1-1.63-.21Q1032.33,928.59,1032.33,928.17Z" transform="translate(-854.52 -748.27)"/><path class="cls-7" d="M1067.72,945.53a2.57,2.57,0,0,1,.18.3l.87,1.57,0,.06s-.06,0-.1,0h-2.34l0,0a.22.22,0,0,1,0-.1q0-.72,0-1.44a.27.27,0,0,1,0-.1s.06,0,.09,0l1-.21.21,0Z" transform="translate(-854.52 -748.27)"/><path class="cls-8" d="M1066.34,945.81q0,.78,0,1.56s0,.07,0,.1a.12.12,0,0,1-.1,0H1064a.12.12,0,0,1-.1,0l.48-.88.56-1,0-.06h.06c.41.06.82.16,1.23.24C1066.28,945.77,1066.32,945.77,1066.34,945.81Z" transform="translate(-854.52 -748.27)"/><path class="cls-9" d="M1066.34,945.81l-1.31-.26h2.64a4.88,4.88,0,0,1-.49.11Z" transform="translate(-854.52 -748.27)"/><path class="cls-10" d="M1068.79,949.29l1.14,1.49-1.29.48a2.56,2.56,0,0,1,.34.31,2.46,2.46,0,0,1,.64,1.36c0,.09,0,.18,0,.26s0,.07-.06.07h-3.26a.12.12,0,0,1,0-.09q0-.87,0-1.75a.24.24,0,0,1,0-.07s0,0,.08,0a2.62,2.62,0,0,0,.6-.09,2.42,2.42,0,0,0,1-.54,2.47,2.47,0,0,0,.76-1.29S1068.76,949.31,1068.79,949.29Z" transform="translate(-854.52 -748.27)"/><path class="cls-11" d="M1066.34,951.34v1.93h-3.23c-.07,0-.09,0-.08-.09a2.46,2.46,0,0,1,1-1.87l.05,0-.66-.25-.57-.21s-.06,0,0-.06l1.11-1.44h0s0,0,0,.07a2.46,2.46,0,0,0,1.22,1.64,2.47,2.47,0,0,0,.91.29,1.58,1.58,0,0,1,.28,0Z" transform="translate(-854.52 -748.27)"/><path class="cls-12" d="M1068.79,949.29a3.26,3.26,0,0,1-.2.6,2.47,2.47,0,0,1-1.44,1.3,2.5,2.5,0,0,1-.82.14h0a.13.13,0,0,1,0-.1q0-1.14,0-2.28a.24.24,0,0,1,0-.08s.06,0,.1,0c.22,0,.21,0,.21.2a.89.89,0,0,0,.18.59.8.8,0,0,0,1,.19.78.78,0,0,0,.39-.69c0-.24,0-.49,0-.73,0,0,0-.08,0-.11a4.33,4.33,0,0,1,.51,0l0,0c0,.26,0,.53,0,.79A1.17,1.17,0,0,0,1068.79,949.29Z" transform="translate(-854.52 -748.27)"/><path class="cls-13" d="M1066.34,948.85q0,1.24,0,2.48a2.49,2.49,0,0,1-2.35-1.68c0-.12-.06-.24-.1-.36a6.2,6.2,0,0,1,0-1,.06.06,0,0,1,.05,0c.16,0,.32,0,.48,0h0a.18.18,0,0,1,0,.11c0,.24,0,.47,0,.71a.81.81,0,0,0,1.6.16,1.92,1.92,0,0,0,0-.33c0-.09,0-.1.1-.1A.37.37,0,0,1,1066.34,948.85Z" transform="translate(-854.52 -748.27)"/><path class="cls-7" d="M1064.4,948.3h-.94a.42.42,0,1,1,0-.83h2.87a.12.12,0,0,1,0,.09q0,.32,0,.65a.14.14,0,0,1,0,.09.13.13,0,0,1-.09,0h-1.85Z" transform="translate(-854.52 -748.27)"/><path class="cls-11" d="M1066.34,948.28v-.81h2.93a.41.41,0,0,1,.06.82h-.08c-.31,0-.61,0-.92,0-.62,0-1.24,0-1.86,0C1066.42,948.3,1066.38,948.31,1066.34,948.28Z" transform="translate(-854.52 -748.27)"/><path class="cls-14" d="M1066.34,948.28h3a1.4,1.4,0,0,1-.3,0h-.74a.15.15,0,0,1-.1,0h-3.66a.15.15,0,0,1-.1,0h0s.06,0,.1,0Z" transform="translate(-854.52 -748.27)"/><path class="cls-10" d="M1064.41,948.3h3.87c0,.27,0,.55,0,.82a.83.83,0,0,1-1.64.16,1.62,1.62,0,0,1,0-.38s0-.07-.06-.06h-.44s0,0,0,.05a1.73,1.73,0,0,1,0,.43.83.83,0,0,1-1.63-.21Q1064.41,948.71,1064.41,948.3Z" transform="translate(-854.52 -748.27)"/><path class="cls-7" d="M1009.65,949.4a2.57,2.57,0,0,1,.18.3l.87,1.57,0,.06s-.06,0-.1,0h-2.34l0,0a.22.22,0,0,1,0-.1q0-.72,0-1.44a.27.27,0,0,1,0-.1s.06,0,.09,0l1-.21.21,0Z" transform="translate(-854.52 -748.27)"/><path class="cls-8" d="M1008.28,949.67q0,.78,0,1.56s0,.07,0,.1a.12.12,0,0,1-.1,0h-2.25a.12.12,0,0,1-.1,0l.48-.88.56-1,0-.06h.06c.41.06.82.16,1.23.24C1008.21,949.64,1008.25,949.64,1008.28,949.67Z" transform="translate(-854.52 -748.27)"/><path class="cls-9" d="M1008.28,949.67l-1.31-.26h2.64a4.88,4.88,0,0,1-.49.11Z" transform="translate(-854.52 -748.27)"/><path class="cls-10" d="M1010.73,953.16l1.14,1.49-1.29.48a2.56,2.56,0,0,1,.34.31,2.46,2.46,0,0,1,.64,1.36c0,.09,0,.18,0,.26s0,.07-.06.07h-3.26a.12.12,0,0,1,0-.09q0-.87,0-1.75a.24.24,0,0,1,0-.07s0,0,.08,0a2.62,2.62,0,0,0,.6-.09,2.42,2.42,0,0,0,1-.54,2.47,2.47,0,0,0,.76-1.29S1010.69,953.18,1010.73,953.16Z" transform="translate(-854.52 -748.27)"/><path class="cls-11" d="M1008.28,955.2v1.93H1005c-.07,0-.09,0-.08-.09a2.46,2.46,0,0,1,1-1.87l.05,0-.66-.25-.57-.21s-.06,0,0-.06l1.11-1.44h0s0,0,0,.07a2.46,2.46,0,0,0,1.22,1.64,2.47,2.47,0,0,0,.91.29,1.58,1.58,0,0,1,.28,0Z" transform="translate(-854.52 -748.27)"/><path class="cls-12" d="M1010.73,953.16a3.26,3.26,0,0,1-.2.6,2.47,2.47,0,0,1-1.44,1.3,2.5,2.5,0,0,1-.82.14h0a.13.13,0,0,1,0-.1q0-1.14,0-2.28a.24.24,0,0,1,0-.08s.06,0,.1,0c.22,0,.21,0,.21.2a.89.89,0,0,0,.18.59.8.8,0,0,0,1,.19.78.78,0,0,0,.39-.69c0-.24,0-.49,0-.73,0,0,0-.08,0-.11a4.33,4.33,0,0,1,.51,0l0,0c0,.26,0,.53,0,.79A1.17,1.17,0,0,0,1010.73,953.16Z" transform="translate(-854.52 -748.27)"/><path class="cls-13" d="M1008.27,952.72q0,1.24,0,2.48a2.49,2.49,0,0,1-2.35-1.68c0-.12-.06-.24-.1-.36a6.2,6.2,0,0,1,0-1,.06.06,0,0,1,.05,0c.16,0,.32,0,.48,0h0a.18.18,0,0,1,0,.11c0,.24,0,.47,0,.71a.81.81,0,0,0,1.6.16,1.92,1.92,0,0,0,0-.33c0-.09,0-.1.1-.1A.37.37,0,0,1,1008.27,952.72Z" transform="translate(-854.52 -748.27)"/><path class="cls-7" d="M1006.34,952.16h-.94a.42.42,0,1,1,0-.83h2.87a.12.12,0,0,1,0,.09q0,.32,0,.65a.14.14,0,0,1,0,.09.13.13,0,0,1-.09,0h-1.85Z" transform="translate(-854.52 -748.27)"/><path class="cls-11" d="M1008.27,952.15v-.81h2.93a.41.41,0,0,1,.06.82h-.08c-.31,0-.61,0-.92,0-.62,0-1.24,0-1.86,0C1008.35,952.17,1008.31,952.18,1008.27,952.15Z" transform="translate(-854.52 -748.27)"/><path class="cls-14" d="M1008.27,952.15h3a1.4,1.4,0,0,1-.3,0h-.74a.15.15,0,0,1-.1,0h-3.66a.15.15,0,0,1-.1,0h0s.06,0,.1,0Z" transform="translate(-854.52 -748.27)"/><path class="cls-10" d="M1006.34,952.17h3.87c0,.27,0,.55,0,.82a.83.83,0,0,1-1.64.16,1.62,1.62,0,0,1,0-.38s0-.07-.06-.06H1008s0,0,0,.05a1.73,1.73,0,0,1,0,.43.83.83,0,0,1-1.63-.21Q1006.34,952.58,1006.34,952.17Z" transform="translate(-854.52 -748.27)"/><path class="cls-7" d="M978.27,968a2.57,2.57,0,0,1,.18.3l.87,1.57,0,.06s-.06,0-.1,0h-2.34l0,0a.22.22,0,0,1,0-.1q0-.72,0-1.44a.27.27,0,0,1,0-.1s.06,0,.09,0l1-.21.21,0Z" transform="translate(-854.52 -748.27)"/><path class="cls-8" d="M976.9,968.31q0,.78,0,1.56s0,.07,0,.1a.12.12,0,0,1-.1,0h-2.25a.12.12,0,0,1-.1,0l.48-.88.56-1,0-.06h.06c.41.06.82.16,1.23.24C976.83,968.28,976.87,968.28,976.9,968.31Z" transform="translate(-854.52 -748.27)"/><path class="cls-9" d="M976.9,968.31l-1.31-.26h2.64a4.88,4.88,0,0,1-.49.11Z" transform="translate(-854.52 -748.27)"/><path class="cls-10" d="M979.35,971.79l1.14,1.49-1.29.48a2.56,2.56,0,0,1,.34.31,2.46,2.46,0,0,1,.64,1.36c0,.09,0,.18,0,.26s0,.07-.06.07H976.9a.12.12,0,0,1,0-.09q0-.87,0-1.75a.24.24,0,0,1,0-.07s0,0,.08,0a2.62,2.62,0,0,0,.6-.09,2.42,2.42,0,0,0,1-.54,2.47,2.47,0,0,0,.76-1.29S979.31,971.82,979.35,971.79Z" transform="translate(-854.52 -748.27)"/><path class="cls-11" d="M976.9,973.84v1.93h-3.23c-.07,0-.09,0-.08-.09a2.46,2.46,0,0,1,1-1.87l.05,0-.66-.25-.57-.21s-.06,0,0-.06l1.11-1.44h0s0,0,0,.07a2.46,2.46,0,0,0,1.22,1.64,2.47,2.47,0,0,0,.91.29,1.58,1.58,0,0,1,.28,0Z" transform="translate(-854.52 -748.27)"/><path class="cls-12" d="M979.35,971.79a3.26,3.26,0,0,1-.2.6,2.47,2.47,0,0,1-1.44,1.3,2.5,2.5,0,0,1-.82.14h0a.13.13,0,0,1,0-.1q0-1.14,0-2.28a.24.24,0,0,1,0-.08s.06,0,.1,0c.22,0,.21,0,.21.2a.89.89,0,0,0,.18.59.8.8,0,0,0,1,.19.78.78,0,0,0,.39-.69c0-.24,0-.49,0-.73,0,0,0-.08,0-.11a4.33,4.33,0,0,1,.51,0l0,0c0,.26,0,.53,0,.79A1.17,1.17,0,0,0,979.35,971.79Z" transform="translate(-854.52 -748.27)"/><path class="cls-13" d="M976.9,971.36q0,1.24,0,2.48a2.49,2.49,0,0,1-2.35-1.68c0-.12-.06-.24-.1-.36a6.2,6.2,0,0,1,0-1,.06.06,0,0,1,.05,0c.16,0,.32,0,.48,0h0a.18.18,0,0,1,0,.11c0,.24,0,.47,0,.71a.81.81,0,0,0,1.6.16,1.92,1.92,0,0,0,0-.33c0-.09,0-.1.1-.1A.37.37,0,0,1,976.9,971.36Z" transform="translate(-854.52 -748.27)"/><path class="cls-7" d="M975,970.8H974a.42.42,0,1,1,0-.83h2.87a.12.12,0,0,1,0,.09q0,.32,0,.65a.14.14,0,0,1,0,.09.13.13,0,0,1-.09,0H975Z" transform="translate(-854.52 -748.27)"/><path class="cls-11" d="M976.9,970.78V970h2.93a.41.41,0,0,1,.06.82h-.08c-.31,0-.61,0-.92,0-.62,0-1.24,0-1.86,0C977,970.81,976.93,970.82,976.9,970.78Z" transform="translate(-854.52 -748.27)"/><path class="cls-14" d="M976.9,970.78h3a1.4,1.4,0,0,1-.3,0h-.74a.15.15,0,0,1-.1,0h-3.66a.15.15,0,0,1-.1,0h0s.06,0,.1,0Z" transform="translate(-854.52 -748.27)"/><path class="cls-10" d="M975,970.8h3.87c0,.27,0,.55,0,.82a.83.83,0,0,1-1.64.16,1.62,1.62,0,0,1,0-.38s0-.07-.06-.06h-.44s0,0,0,.05a1.73,1.73,0,0,1,0,.43.83.83,0,0,1-1.63-.21Q975,971.21,975,970.8Z" transform="translate(-854.52 -748.27)"/><path class="cls-7" d="M957.86,921.81a2.57,2.57,0,0,1,.18.3l.87,1.57,0,.06s-.06,0-.1,0H956.5l0,0a.22.22,0,0,1,0-.1q0-.72,0-1.44a.27.27,0,0,1,0-.1s.06,0,.09,0l1-.21.21,0Z" transform="translate(-854.52 -748.27)"/><path class="cls-8" d="M956.49,922.09q0,.78,0,1.56s0,.07,0,.1a.12.12,0,0,1-.1,0h-2.25a.12.12,0,0,1-.1,0l.48-.88.56-1,0-.06h.06c.41.06.82.16,1.23.24C956.42,922.05,956.46,922.05,956.49,922.09Z" transform="translate(-854.52 -748.27)"/><path class="cls-9" d="M956.49,922.09l-1.31-.26h2.64a4.88,4.88,0,0,1-.49.11Z" transform="translate(-854.52 -748.27)"/><path class="cls-10" d="M958.94,925.57l1.14,1.49-1.29.48a2.56,2.56,0,0,1,.34.31,2.46,2.46,0,0,1,.64,1.36c0,.09,0,.18,0,.26s0,.07-.06.07h-3.26a.12.12,0,0,1,0-.09q0-.87,0-1.75a.24.24,0,0,1,0-.07s0,0,.08,0a2.62,2.62,0,0,0,.6-.09,2.42,2.42,0,0,0,1-.54,2.47,2.47,0,0,0,.76-1.29S958.9,925.6,958.94,925.57Z" transform="translate(-854.52 -748.27)"/><path class="cls-11" d="M956.49,927.62v1.93h-3.23c-.07,0-.09,0-.08-.09a2.46,2.46,0,0,1,1-1.87l.05,0-.66-.25-.57-.21s-.06,0,0-.06l1.11-1.44h0s0,0,0,.07a2.46,2.46,0,0,0,1.22,1.64,2.47,2.47,0,0,0,.91.29,1.58,1.58,0,0,1,.28,0Z" transform="translate(-854.52 -748.27)"/><path class="cls-12" d="M958.94,925.57a3.26,3.26,0,0,1-.2.6,2.47,2.47,0,0,1-1.44,1.3,2.5,2.5,0,0,1-.82.14h0a.13.13,0,0,1,0-.1q0-1.14,0-2.28a.24.24,0,0,1,0-.08s.06,0,.1,0c.22,0,.21,0,.21.2a.89.89,0,0,0,.18.59.8.8,0,0,0,1,.19.78.78,0,0,0,.39-.69c0-.24,0-.49,0-.73,0,0,0-.08,0-.11a4.33,4.33,0,0,1,.51,0l0,0c0,.26,0,.53,0,.79A1.17,1.17,0,0,0,958.94,925.57Z" transform="translate(-854.52 -748.27)"/><path class="cls-13" d="M956.49,925.13q0,1.24,0,2.48a2.49,2.49,0,0,1-2.35-1.68c0-.12-.06-.24-.1-.36a6.2,6.2,0,0,1,0-1,.06.06,0,0,1,.05,0c.16,0,.32,0,.48,0h0a.18.18,0,0,1,0,.11c0,.24,0,.47,0,.71a.81.81,0,0,0,1.6.16,1.92,1.92,0,0,0,0-.33c0-.09,0-.1.1-.1A.37.37,0,0,1,956.49,925.13Z" transform="translate(-854.52 -748.27)"/><path class="cls-7" d="M954.55,924.58h-.94a.42.42,0,1,1,0-.83h2.87a.12.12,0,0,1,0,.09q0,.32,0,.65a.14.14,0,0,1,0,.09.13.13,0,0,1-.09,0h-1.85Z" transform="translate(-854.52 -748.27)"/><path class="cls-11" d="M956.49,924.56v-.81h2.93a.41.41,0,0,1,.06.82h-.08c-.31,0-.61,0-.92,0-.62,0-1.24,0-1.86,0C956.57,924.58,956.52,924.59,956.49,924.56Z" transform="translate(-854.52 -748.27)"/><path class="cls-14" d="M956.49,924.56h3a1.4,1.4,0,0,1-.3,0h-.74a.15.15,0,0,1-.1,0h-3.66a.15.15,0,0,1-.1,0h0s.06,0,.1,0Z" transform="translate(-854.52 -748.27)"/><path class="cls-10" d="M954.56,924.58h3.87c0,.27,0,.55,0,.82a.83.83,0,0,1-1.64.16,1.62,1.62,0,0,1,0-.38s0-.07-.06-.06h-.44s0,0,0,.05a1.73,1.73,0,0,1,0,.43.83.83,0,0,1-1.63-.21Q954.56,925,954.56,924.58Z" transform="translate(-854.52 -748.27)"/><path class="cls-7" d="M991.83,849.69a2.57,2.57,0,0,1,.18.3l.87,1.57,0,.06s-.06,0-.1,0h-2.34l0,0a.22.22,0,0,1,0-.1q0-.72,0-1.44a.27.27,0,0,1,0-.1s.06,0,.09,0l1-.21.21,0Z" transform="translate(-854.52 -748.27)"/><path class="cls-8" d="M990.46,850q0,.78,0,1.56s0,.07,0,.1a.12.12,0,0,1-.1,0h-2.25a.12.12,0,0,1-.1,0l.48-.88.56-1,0-.06h.06c.41.06.82.16,1.23.24C990.39,849.93,990.43,849.93,990.46,850Z" transform="translate(-854.52 -748.27)"/><path class="cls-9" d="M990.46,850l-1.31-.26h2.64a4.88,4.88,0,0,1-.49.11Z" transform="translate(-854.52 -748.27)"/><path class="cls-10" d="M992.91,853.45l1.14,1.49-1.29.48a2.56,2.56,0,0,1,.34.31,2.46,2.46,0,0,1,.64,1.36c0,.09,0,.18,0,.26s0,.07-.06.07h-3.26a.12.12,0,0,1,0-.09q0-.87,0-1.75a.24.24,0,0,1,0-.07s0,0,.08,0a2.62,2.62,0,0,0,.6-.09,2.42,2.42,0,0,0,1-.54,2.47,2.47,0,0,0,.76-1.29S992.87,853.47,992.91,853.45Z" transform="translate(-854.52 -748.27)"/><path class="cls-11" d="M990.46,855.5v1.93h-3.23c-.07,0-.09,0-.08-.09a2.46,2.46,0,0,1,1-1.87l.05,0-.66-.25-.57-.21s-.06,0,0-.06l1.11-1.44h0s0,0,0,.07a2.46,2.46,0,0,0,1.22,1.64,2.47,2.47,0,0,0,.91.29,1.58,1.58,0,0,1,.28,0Z" transform="translate(-854.52 -748.27)"/><path class="cls-12" d="M992.91,853.45a3.26,3.26,0,0,1-.2.6,2.47,2.47,0,0,1-1.44,1.3,2.5,2.5,0,0,1-.82.14h0a.13.13,0,0,1,0-.1q0-1.14,0-2.28a.24.24,0,0,1,0-.08s.06,0,.1,0c.22,0,.21,0,.21.2a.89.89,0,0,0,.18.59.8.8,0,0,0,1,.19.78.78,0,0,0,.39-.69c0-.24,0-.49,0-.73,0,0,0-.08,0-.11a4.33,4.33,0,0,1,.51,0l0,0c0,.26,0,.53,0,.79A1.17,1.17,0,0,0,992.91,853.45Z" transform="translate(-854.52 -748.27)"/><path class="cls-13" d="M990.46,853q0,1.24,0,2.48a2.49,2.49,0,0,1-2.35-1.68c0-.12-.06-.24-.1-.36a6.2,6.2,0,0,1,0-1,.06.06,0,0,1,.05,0c.16,0,.32,0,.48,0h0a.18.18,0,0,1,0,.11c0,.24,0,.47,0,.71a.81.81,0,0,0,1.6.16,1.92,1.92,0,0,0,0-.33c0-.09,0-.1.1-.1A.37.37,0,0,1,990.46,853Z" transform="translate(-854.52 -748.27)"/><path class="cls-7" d="M988.52,852.46h-.94a.42.42,0,1,1,0-.83h2.87a.12.12,0,0,1,0,.09q0,.32,0,.65a.14.14,0,0,1,0,.09.13.13,0,0,1-.09,0h-1.85Z" transform="translate(-854.52 -748.27)"/><path class="cls-11" d="M990.46,852.44v-.81h2.93a.41.41,0,0,1,.06.82h-.08c-.31,0-.61,0-.92,0-.62,0-1.24,0-1.86,0C990.54,852.46,990.49,852.47,990.46,852.44Z" transform="translate(-854.52 -748.27)"/><path class="cls-14" d="M990.46,852.44h3a1.4,1.4,0,0,1-.3,0h-.74a.15.15,0,0,1-.1,0h-3.66a.15.15,0,0,1-.1,0h0s.06,0,.1,0Z" transform="translate(-854.52 -748.27)"/><path class="cls-10" d="M988.53,852.46h3.87c0,.27,0,.55,0,.82a.83.83,0,0,1-1.64.16,1.62,1.62,0,0,1,0-.38s0-.07-.06-.06h-.44s0,0,0,.05a1.73,1.73,0,0,1,0,.43.83.83,0,0,1-1.63-.21Q988.52,852.87,988.53,852.46Z" transform="translate(-854.52 -748.27)"/><path class="cls-7" d="M1027.63,857.43a2.57,2.57,0,0,1,.18.3l.87,1.57,0,.06s-.06,0-.1,0h-2.34l0,0a.22.22,0,0,1,0-.1q0-.72,0-1.44a.27.27,0,0,1,0-.1s.06,0,.09,0l1-.21.21,0Z" transform="translate(-854.52 -748.27)"/><path class="cls-8" d="M1026.25,857.7q0,.78,0,1.56s0,.07,0,.1a.12.12,0,0,1-.1,0h-2.25a.12.12,0,0,1-.1,0l.48-.88.56-1,0-.06h.06c.41.06.82.16,1.23.24C1026.19,857.67,1026.23,857.67,1026.25,857.7Z" transform="translate(-854.52 -748.27)"/><path class="cls-9" d="M1026.25,857.7l-1.31-.26h2.64a4.88,4.88,0,0,1-.49.11Z" transform="translate(-854.52 -748.27)"/><path class="cls-10" d="M1028.71,861.19l1.14,1.49-1.29.48a2.56,2.56,0,0,1,.34.31,2.46,2.46,0,0,1,.64,1.36c0,.09,0,.18,0,.26s0,.07-.06.07h-3.26a.12.12,0,0,1,0-.09q0-.87,0-1.75a.24.24,0,0,1,0-.07s0,0,.08,0a2.62,2.62,0,0,0,.6-.09,2.42,2.42,0,0,0,1-.54,2.47,2.47,0,0,0,.76-1.29S1028.67,861.21,1028.71,861.19Z" transform="translate(-854.52 -748.27)"/><path class="cls-11" d="M1026.25,863.23v1.93H1023c-.07,0-.09,0-.08-.09a2.46,2.46,0,0,1,1-1.87l.05,0-.66-.25-.57-.21s-.06,0,0-.06l1.11-1.44h0s0,0,0,.07a2.46,2.46,0,0,0,1.22,1.64,2.47,2.47,0,0,0,.91.29,1.58,1.58,0,0,1,.28,0Z" transform="translate(-854.52 -748.27)"/><path class="cls-12" d="M1028.71,861.19a3.26,3.26,0,0,1-.2.6,2.47,2.47,0,0,1-1.44,1.3,2.5,2.5,0,0,1-.82.14h0a.13.13,0,0,1,0-.1q0-1.14,0-2.28a.24.24,0,0,1,0-.08s.06,0,.1,0c.22,0,.21,0,.21.2a.89.89,0,0,0,.18.59.8.8,0,0,0,1,.19.78.78,0,0,0,.39-.69c0-.24,0-.49,0-.73,0,0,0-.08,0-.11a4.33,4.33,0,0,1,.51,0l0,0c0,.26,0,.53,0,.79A1.17,1.17,0,0,0,1028.71,861.19Z" transform="translate(-854.52 -748.27)"/><path class="cls-13" d="M1026.25,860.75q0,1.24,0,2.48a2.49,2.49,0,0,1-2.35-1.68c0-.12-.06-.24-.1-.36a6.2,6.2,0,0,1,0-1,.06.06,0,0,1,.05,0c.16,0,.32,0,.48,0h0a.18.18,0,0,1,0,.11c0,.24,0,.47,0,.71a.81.81,0,0,0,1.6.16,1.92,1.92,0,0,0,0-.33c0-.09,0-.1.1-.1A.37.37,0,0,1,1026.25,860.75Z" transform="translate(-854.52 -748.27)"/><path class="cls-7" d="M1024.31,860.19h-.94a.42.42,0,1,1,0-.83h2.87a.12.12,0,0,1,0,.09q0,.32,0,.65a.14.14,0,0,1,0,.09.13.13,0,0,1-.09,0h-1.85Z" transform="translate(-854.52 -748.27)"/><path class="cls-11" d="M1026.25,860.18v-.81h2.93a.41.41,0,0,1,.06.82h-.08c-.31,0-.61,0-.92,0-.62,0-1.24,0-1.86,0C1026.33,860.2,1026.29,860.21,1026.25,860.18Z" transform="translate(-854.52 -748.27)"/><path class="cls-14" d="M1026.25,860.18h3a1.4,1.4,0,0,1-.3,0h-.74a.15.15,0,0,1-.1,0h-3.66a.15.15,0,0,1-.1,0h0s.06,0,.1,0Z" transform="translate(-854.52 -748.27)"/><path class="cls-10" d="M1024.32,860.2h3.87c0,.27,0,.55,0,.82a.83.83,0,0,1-1.64.16,1.62,1.62,0,0,1,0-.38s0-.07-.06-.06H1026s0,0,0,.05a1.73,1.73,0,0,1,0,.43.83.83,0,0,1-1.63-.21Q1024.32,860.61,1024.32,860.2Z" transform="translate(-854.52 -748.27)"/><path class="cls-7" d="M1061.63,902.14a2.57,2.57,0,0,1,.18.3l.87,1.57,0,.06s-.06,0-.1,0h-2.34l0,0a.22.22,0,0,1,0-.1q0-.72,0-1.44a.27.27,0,0,1,0-.1s.06,0,.09,0l1-.21.21,0Z" transform="translate(-854.52 -748.27)"/><path class="cls-8" d="M1060.25,902.41q0,.78,0,1.56s0,.07,0,.1a.12.12,0,0,1-.1,0h-2.25a.12.12,0,0,1-.1,0l.48-.88.56-1,0-.06h.06c.41.06.82.16,1.23.24C1060.19,902.38,1060.23,902.38,1060.25,902.41Z" transform="translate(-854.52 -748.27)"/><path class="cls-9" d="M1060.25,902.41l-1.31-.26h2.64a4.88,4.88,0,0,1-.49.11Z" transform="translate(-854.52 -748.27)"/><path class="cls-10" d="M1062.71,905.9l1.14,1.49-1.29.48a2.56,2.56,0,0,1,.34.31,2.46,2.46,0,0,1,.64,1.36c0,.09,0,.18,0,.26s0,.07-.06.07h-3.26a.12.12,0,0,1,0-.09q0-.87,0-1.75a.24.24,0,0,1,0-.07s0,0,.08,0a2.62,2.62,0,0,0,.6-.09,2.42,2.42,0,0,0,1-.54,2.47,2.47,0,0,0,.76-1.29S1062.67,905.92,1062.71,905.9Z" transform="translate(-854.52 -748.27)"/><path class="cls-11" d="M1060.25,907.94v1.93H1057c-.07,0-.09,0-.08-.09a2.46,2.46,0,0,1,1-1.87l.05,0-.66-.25-.57-.21s-.06,0,0-.06l1.11-1.44h0s0,0,0,.07a2.46,2.46,0,0,0,1.22,1.64,2.47,2.47,0,0,0,.91.29,1.58,1.58,0,0,1,.28,0Z" transform="translate(-854.52 -748.27)"/><path class="cls-12" d="M1062.71,905.9a3.26,3.26,0,0,1-.2.6,2.47,2.47,0,0,1-1.44,1.3,2.5,2.5,0,0,1-.82.14h0a.13.13,0,0,1,0-.1q0-1.14,0-2.28a.24.24,0,0,1,0-.08s.06,0,.1,0c.22,0,.21,0,.21.2a.89.89,0,0,0,.18.59.8.8,0,0,0,1,.19.78.78,0,0,0,.39-.69c0-.24,0-.49,0-.73,0,0,0-.08,0-.11a4.33,4.33,0,0,1,.51,0l0,0c0,.26,0,.53,0,.79A1.17,1.17,0,0,0,1062.71,905.9Z" transform="translate(-854.52 -748.27)"/><path class="cls-13" d="M1060.25,905.46q0,1.24,0,2.48a2.49,2.49,0,0,1-2.35-1.68c0-.12-.06-.24-.1-.36a6.2,6.2,0,0,1,0-1,.06.06,0,0,1,.05,0c.16,0,.32,0,.48,0h0a.18.18,0,0,1,0,.11c0,.24,0,.47,0,.71a.81.81,0,0,0,1.6.16,1.92,1.92,0,0,0,0-.33c0-.09,0-.1.1-.1A.37.37,0,0,1,1060.25,905.46Z" transform="translate(-854.52 -748.27)"/><path class="cls-7" d="M1058.31,904.9h-.94a.42.42,0,1,1,0-.83h2.87a.12.12,0,0,1,0,.09q0,.32,0,.65a.14.14,0,0,1,0,.09.13.13,0,0,1-.09,0h-1.85Z" transform="translate(-854.52 -748.27)"/><path class="cls-11" d="M1060.25,904.89v-.81h2.93a.41.41,0,0,1,.06.82h-.08c-.31,0-.61,0-.92,0-.62,0-1.24,0-1.86,0C1060.33,904.91,1060.29,904.92,1060.25,904.89Z" transform="translate(-854.52 -748.27)"/><path class="cls-14" d="M1060.25,904.89h3a1.4,1.4,0,0,1-.3,0h-.74a.15.15,0,0,1-.1,0h-3.66a.15.15,0,0,1-.1,0h0s.06,0,.1,0Z" transform="translate(-854.52 -748.27)"/><path class="cls-10" d="M1058.32,904.91h3.87c0,.27,0,.55,0,.82a.83.83,0,0,1-1.64.16,1.62,1.62,0,0,1,0-.38s0-.07-.06-.06H1060s0,0,0,.05a1.73,1.73,0,0,1,0,.43.83.83,0,0,1-1.63-.21Q1058.32,905.32,1058.32,904.91Z" transform="translate(-854.52 -748.27)"/><path class="cls-7" d="M1097.37,899.41a2.57,2.57,0,0,1,.18.3l.87,1.57,0,.06s-.06,0-.1,0H1096l0,0a.22.22,0,0,1,0-.1q0-.72,0-1.44a.27.27,0,0,1,0-.1s.06,0,.09,0l1-.21.21,0Z" transform="translate(-854.52 -748.27)"/><path class="cls-8" d="M1096,899.69q0,.78,0,1.56s0,.07,0,.1a.12.12,0,0,1-.1,0h-2.25a.12.12,0,0,1-.1,0l.48-.88.56-1,0-.06h.06c.41.06.82.16,1.23.24C1095.93,899.65,1096,899.65,1096,899.69Z" transform="translate(-854.52 -748.27)"/><path class="cls-9" d="M1096,899.69l-1.31-.26h2.64a4.88,4.88,0,0,1-.49.11Z" transform="translate(-854.52 -748.27)"/><path class="cls-10" d="M1098.45,903.17l1.14,1.49-1.29.48a2.56,2.56,0,0,1,.34.31,2.46,2.46,0,0,1,.64,1.36c0,.09,0,.18,0,.26s0,.07-.06.07H1096a.12.12,0,0,1,0-.09q0-.87,0-1.75a.24.24,0,0,1,0-.07s0,0,.08,0a2.62,2.62,0,0,0,.6-.09,2.42,2.42,0,0,0,1-.54,2.47,2.47,0,0,0,.76-1.29S1098.41,903.2,1098.45,903.17Z" transform="translate(-854.52 -748.27)"/><path class="cls-11" d="M1096,905.22v1.93h-3.23c-.07,0-.09,0-.08-.09a2.46,2.46,0,0,1,1-1.87l.05,0-.66-.25-.57-.21s-.06,0,0-.06l1.11-1.44h0s0,0,0,.07a2.46,2.46,0,0,0,1.22,1.64,2.47,2.47,0,0,0,.91.29,1.58,1.58,0,0,1,.28,0Z" transform="translate(-854.52 -748.27)"/><path class="cls-12" d="M1098.45,903.17a3.26,3.26,0,0,1-.2.6,2.47,2.47,0,0,1-1.44,1.3,2.5,2.5,0,0,1-.82.14h0a.13.13,0,0,1,0-.1q0-1.14,0-2.28a.24.24,0,0,1,0-.08s.06,0,.1,0c.22,0,.21,0,.21.2a.89.89,0,0,0,.18.59.8.8,0,0,0,1,.19.78.78,0,0,0,.39-.69c0-.24,0-.49,0-.73,0,0,0-.08,0-.11a4.33,4.33,0,0,1,.51,0l0,0c0,.26,0,.53,0,.79A1.17,1.17,0,0,0,1098.45,903.17Z" transform="translate(-854.52 -748.27)"/><path class="cls-13" d="M1096,902.73q0,1.24,0,2.48a2.49,2.49,0,0,1-2.35-1.68c0-.12-.06-.24-.1-.36a6.2,6.2,0,0,1,0-1,.06.06,0,0,1,.05,0c.16,0,.32,0,.48,0h0a.18.18,0,0,1,0,.11c0,.24,0,.47,0,.71a.81.81,0,0,0,1.6.16,1.92,1.92,0,0,0,0-.33c0-.09,0-.1.1-.1A.37.37,0,0,1,1096,902.73Z" transform="translate(-854.52 -748.27)"/><path class="cls-7" d="M1094.06,902.18h-.94a.42.42,0,1,1,0-.83H1096a.12.12,0,0,1,0,.09q0,.32,0,.65a.14.14,0,0,1,0,.09.13.13,0,0,1-.09,0h-1.85Z" transform="translate(-854.52 -748.27)"/><path class="cls-11" d="M1096,902.16v-.81h2.93a.41.41,0,0,1,.06.82h-.08c-.31,0-.61,0-.92,0-.62,0-1.24,0-1.86,0C1096.07,902.18,1096,902.19,1096,902.16Z" transform="translate(-854.52 -748.27)"/><path class="cls-14" d="M1096,902.16h3a1.4,1.4,0,0,1-.3,0h-.74a.15.15,0,0,1-.1,0h-3.66a.15.15,0,0,1-.1,0h0s.06,0,.1,0Z" transform="translate(-854.52 -748.27)"/><path class="cls-10" d="M1094.06,902.18h3.87c0,.27,0,.55,0,.82a.83.83,0,0,1-1.64.16,1.62,1.62,0,0,1,0-.38s0-.07-.06-.06h-.44s0,0,0,.05a1.73,1.73,0,0,1,0,.43.83.83,0,0,1-1.63-.21Q1094.06,902.59,1094.06,902.18Z" transform="translate(-854.52 -748.27)"/><path class="cls-7" d="M1028.14,814.36a2.57,2.57,0,0,1,.18.3l.87,1.57,0,.06s-.06,0-.1,0h-2.34l0,0a.22.22,0,0,1,0-.1q0-.72,0-1.44a.27.27,0,0,1,0-.1s.06,0,.09,0l1-.21.21,0Z" transform="translate(-854.52 -748.27)"/><path class="cls-8" d="M1026.77,814.64q0,.78,0,1.56s0,.07,0,.1a.12.12,0,0,1-.1,0h-2.25a.12.12,0,0,1-.1,0l.48-.88.56-1,0-.06h.06c.41.06.82.16,1.23.24C1026.7,814.61,1026.74,814.61,1026.77,814.64Z" transform="translate(-854.52 -748.27)"/><path class="cls-9" d="M1026.77,814.64l-1.31-.26h2.64a4.88,4.88,0,0,1-.49.11Z" transform="translate(-854.52 -748.27)"/><path class="cls-10" d="M1029.22,818.12l1.14,1.49-1.29.48a2.56,2.56,0,0,1,.34.31,2.46,2.46,0,0,1,.64,1.36c0,.09,0,.18,0,.26s0,.07-.06.07h-3.26a.12.12,0,0,1,0-.09q0-.87,0-1.75a.24.24,0,0,1,0-.07s0,0,.08,0a2.62,2.62,0,0,0,.6-.09,2.42,2.42,0,0,0,1-.54,2.47,2.47,0,0,0,.76-1.29S1029.18,818.15,1029.22,818.12Z" transform="translate(-854.52 -748.27)"/><path class="cls-11" d="M1026.77,820.17v1.93h-3.23c-.07,0-.09,0-.08-.09a2.46,2.46,0,0,1,1-1.87l.05,0-.66-.25-.57-.21s-.06,0,0-.06l1.11-1.44h0s0,0,0,.07a2.46,2.46,0,0,0,1.22,1.64,2.47,2.47,0,0,0,.91.29,1.58,1.58,0,0,1,.28,0Z" transform="translate(-854.52 -748.27)"/><path class="cls-12" d="M1029.22,818.12a3.26,3.26,0,0,1-.2.6,2.47,2.47,0,0,1-1.44,1.3,2.5,2.5,0,0,1-.82.14h0a.13.13,0,0,1,0-.1q0-1.14,0-2.28a.24.24,0,0,1,0-.08s.06,0,.1,0c.22,0,.21,0,.21.2a.89.89,0,0,0,.18.59.8.8,0,0,0,1,.19.78.78,0,0,0,.39-.69c0-.24,0-.49,0-.73,0,0,0-.08,0-.11a4.33,4.33,0,0,1,.51,0l0,0c0,.26,0,.53,0,.79A1.17,1.17,0,0,0,1029.22,818.12Z" transform="translate(-854.52 -748.27)"/><path class="cls-13" d="M1026.77,817.69q0,1.24,0,2.48a2.49,2.49,0,0,1-2.35-1.68c0-.12-.06-.24-.1-.36a6.2,6.2,0,0,1,0-1,.06.06,0,0,1,.05,0c.16,0,.32,0,.48,0h0a.18.18,0,0,1,0,.11c0,.24,0,.47,0,.71a.81.81,0,0,0,1.6.16,1.92,1.92,0,0,0,0-.33c0-.09,0-.1.1-.1A.37.37,0,0,1,1026.77,817.69Z" transform="translate(-854.52 -748.27)"/><path class="cls-7" d="M1024.83,817.13h-.94a.42.42,0,1,1,0-.83h2.87a.12.12,0,0,1,0,.09q0,.32,0,.65a.14.14,0,0,1,0,.09.13.13,0,0,1-.09,0h-1.85Z" transform="translate(-854.52 -748.27)"/><path class="cls-11" d="M1026.77,817.11v-.81h2.93a.41.41,0,0,1,.06.82h-.08c-.31,0-.61,0-.92,0-.62,0-1.24,0-1.86,0C1026.84,817.14,1026.8,817.15,1026.77,817.11Z" transform="translate(-854.52 -748.27)"/><path class="cls-14" d="M1026.77,817.11h3a1.4,1.4,0,0,1-.3,0h-.74a.15.15,0,0,1-.1,0h-3.66a.15.15,0,0,1-.1,0h0s.06,0,.1,0Z" transform="translate(-854.52 -748.27)"/><path class="cls-10" d="M1024.83,817.13h3.87c0,.27,0,.55,0,.82a.83.83,0,0,1-1.64.16,1.62,1.62,0,0,1,0-.38s0-.07-.06-.06h-.44s0,0,0,.05a1.73,1.73,0,0,1,0,.43.83.83,0,0,1-1.63-.21Q1024.83,817.54,1024.83,817.13Z" transform="translate(-854.52 -748.27)"/></g></svg>